<?xml version="1.0" encoding="utf-8"?>
<!-- Generator: Adobe Illustrator 27.5.0, SVG Export Plug-In . SVG Version: 6.00 Build 0)  -->
<svg version="1.1" xmlns="http://www.w3.org/2000/svg" xmlns:xlink="http://www.w3.org/1999/xlink" x="0px" y="0px"
	 viewBox="0 0 500 500" style="enable-background:new 0 0 500 500;" xml:space="preserve">
<g id="Floor">
	<path id="Floor_6_" style="fill:#F5F5F5;" d="M378.741,427.73c-76.809,42.547-201.342,42.548-278.15,0.001
		c-76.809-42.548-76.809-111.531,0-154.078c76.809-42.548,201.342-42.548,278.151-0.001
		C455.551,316.199,455.551,385.183,378.741,427.73z"/>
</g>
<g id="Shadows">
	<path id="Shadow_10_" style="fill:#E0E0E0;" d="M202.473,370.683l64.718,37.099c1.198,0.687,3.138,0.684,4.334-0.007
		l133.779-77.237c1.196-0.69,1.195-1.808-0.003-2.496l-68.954-39.624c-1.197-0.688-3.121-0.66-4.298,0.063l-129.616,79.65
		C201.258,368.853,201.275,369.996,202.473,370.683z"/>
	<path id="Shadow_9_" style="fill:#E0E0E0;" d="M137.208,389.012L68.42,349.299c-1.196-0.69-1.198-1.813-0.004-2.507l68.538-39.85
		c1.194-0.694,3.13-0.697,4.326-0.007l69.044,39.862c1.196,0.69,1.196,1.81,0,2.5l-68.787,39.714
		C140.342,389.702,138.404,389.702,137.208,389.012z"/>
	<path id="Shadow_7_" style="fill:#E0E0E0;" d="M344.634,416.599c-13.78,8.205-36.121,8.205-49.901,0
		c-13.78-8.202-13.78-21.504,0-29.709c13.78-8.203,36.121-8.203,49.901,0C358.413,395.095,358.413,408.396,344.634,416.599z"/>
	<path id="Shadow_8_" style="fill:#E0E0E0;" d="M394.379,392.508c-13.65,8.127-35.781,8.127-49.431,0
		c-13.65-8.125-13.65-21.302,0-29.429c13.65-8.125,35.781-8.125,49.431,0C408.029,371.207,408.029,384.383,394.379,392.508z"/>
</g>
<g id="Plants">
	<g id="Plants_7_">
		<g id="pLANTS_1_">
			<g id="XMLID_1746_">
				<g id="XMLID_1749_">
					<path id="XMLID_1751_" style="fill:#27DEBF;" d="M73.205,321.907c-0.105-6.024-4.68-18.425-11.067-26.138
						c-6.387-7.713-16.315-13.26-23.255-10.75c-6.463,2.338-5.61,10.855,2.377,16.37c7.987,5.515,19.97,12.409,23.609,22.12
						l7.488,11.862L73.205,321.907z"/>
					<path id="XMLID_1750_" style="opacity:0.1;" d="M73.205,321.907c-0.105-6.024-4.68-18.425-11.067-26.138
						c-6.387-7.713-16.315-13.26-23.255-10.75c-6.463,2.338-5.61,10.855,2.377,16.37c7.987,5.515,19.97,12.409,23.609,22.12
						l7.488,11.862L73.205,321.907z"/>
				</g>
				<g id="XMLID_1747_">
					<path id="XMLID_1748_" style="fill:#FFFFFF;" d="M73.793,330.142c-0.192-0.012-0.36-0.151-0.403-0.347
						c-4.392-20.493-21.318-36.916-31.339-40.436c-0.229-0.081-0.35-0.332-0.27-0.561c0.08-0.228,0.326-0.354,0.561-0.269
						c10.212,3.586,27.45,20.279,31.908,41.082c0.051,0.237-0.1,0.471-0.338,0.522C73.873,330.142,73.832,330.145,73.793,330.142z"
						/>
				</g>
			</g>
			<g id="XMLID_1740_">
				<g id="XMLID_1743_">
					<path id="XMLID_1744_" style="fill:#27DEBF;" d="M70.956,343.358c-1.027-3.369-5.26-8.885-12.03-13.384
						c-7.489-4.977-16.895-7.162-19.123-11.098c-2.677-4.729,1.269-9.31,8.887-8.5c7.618,0.81,21.164,10.948,23.572,26.526
						L70.956,343.358z"/>
				</g>
				<g id="XMLID_1741_">
					<path id="XMLID_1742_" style="fill:#FFFFFF;" d="M72.365,339.779c-0.167-0.011-0.321-0.117-0.384-0.284
						c-6.613-17.506-20.161-23.455-26.401-24.154c-0.241-0.027-0.415-0.245-0.389-0.486c0.027-0.242,0.235-0.416,0.486-0.389
						c6.899,0.773,20.376,6.85,27.126,24.718c0.086,0.227-0.029,0.482-0.256,0.568C72.488,339.774,72.425,339.783,72.365,339.779z"
						/>
				</g>
			</g>
		</g>
		<g id="Plants_9_">
			<g id="XMLID_1733_">
				<g id="XMLID_1737_">
					<path id="XMLID_1739_" style="fill:#27DEBF;" d="M399.035,301.954c0,0-0.707-10.365,2.899-19.17
						c3.606-8.805,9.644-14.995,16.025-16.694c6.381-1.699,12.702,3.3,6.524,8.66c-6.178,5.361-17.721,11.792-20.581,28.13
						L399.035,301.954z"/>
					<path id="XMLID_1738_" style="opacity:0.15;" d="M399.035,301.954c0,0-0.707-10.365,2.899-19.17
						c3.606-8.805,9.644-14.995,16.025-16.694c6.381-1.699,12.702,3.3,6.524,8.66c-6.178,5.361-17.721,11.792-20.581,28.13
						L399.035,301.954z"/>
				</g>
				<g id="XMLID_1735_">
					<path id="XMLID_1736_" style="fill:#FFFFFF;" d="M400.45,298.969c-0.024,0-0.048-0.002-0.072-0.008
						c-0.19-0.039-0.313-0.225-0.273-0.416c3.748-18.08,15.468-27.491,21.142-29.941c0.177-0.078,0.385,0.005,0.462,0.183
						c0.077,0.179-0.005,0.385-0.183,0.462c-5.558,2.4-17.043,11.642-20.732,29.438C400.759,298.855,400.613,298.969,400.45,298.969
						z"/>
				</g>
			</g>
			<g id="XMLID_1677_">
				<g id="XMLID_1713_">
					<g id="XMLID_1718_">
						<path id="XMLID_1732_" style="fill:#27DEBF;" d="M431.49,293.211c-0.366,1.519-1.765,2.532-3.088,3.369
							c-1.315,0.83-2.757,1.737-3.284,3.207c-1.062,2.968,2.18,6.273,0.992,9.192c-0.499,1.224-1.695,2.04-2.933,2.504
							c-1.027,0.394-2.11,0.591-3.172,0.879c-0.521,0.084-1.041,0.141-1.555,0.162c-1.519,0.056-3.137,0.281-4.353,1.287
							c-1.913,1.59-2.075,4.403-2.989,6.717c-1.097,2.771-3.545,4.902-6.358,5.823c-0.936,0.302-2.687,0.802-3.763,0.436
							c-0.084-0.028-0.155-0.056-0.225-0.091c-0.007,0-0.014-0.007-0.021-0.014c-0.162-0.127-0.366-0.288-0.457-0.38
							c-0.021-0.014-0.035-0.035-0.049-0.056c-0.633-1.322-0.281-2.884-0.52-4.325c-0.014-0.091-0.028-0.176-0.049-0.26
							c-0.366-1.66-0.717-3.313-1.062-4.972c-0.64-3.052-1.238-6.119-1.779-9.192c-0.345-1.997-0.985-4.135-0.485-6.168
							c0.556-2.237,2.87-2.708,3.376-4.895c0.204-0.872,0.232-1.772,0.422-2.651c0.577-2.581,2.721-4.754,5.303-5.359
							c4.016-0.949,8.257,1.667,12.252,0.626c1.034-0.274,1.997-0.781,2.996-1.161c3.172-1.217,7.138-0.978,9.495,1.463
							C431.166,290.37,431.82,291.833,431.49,293.211z"/>
					</g>
					<g id="XMLID_1716_" style="opacity:0.07;">
						<path id="XMLID_1717_" style="fill:#263238;" d="M431.49,293.211c-0.366,1.519-1.765,2.532-3.088,3.369
							c-1.315,0.83-2.757,1.737-3.284,3.207c-1.062,2.968,2.18,6.273,0.992,9.192c-0.499,1.224-1.695,2.04-2.933,2.504
							c-1.013,0.387-2.089,0.696-3.172,0.879c-0.521,0.084-1.041,0.141-1.555,0.162c-1.519,0.056-3.137,0.281-4.353,1.287
							c-1.913,1.59-2.075,4.403-2.989,6.717c-1.097,2.771-3.545,4.902-6.358,5.823c-0.936,0.302-2.687,0.802-3.763,0.436
							c-0.084-0.028-0.155-0.056-0.225-0.091c-0.007,0-0.014-0.007-0.021-0.014c-0.064-0.028-0.127-0.063-0.183-0.105
							c-0.105-0.077-0.197-0.169-0.274-0.274c-0.021-0.014-0.035-0.035-0.049-0.056c-0.76-1.048-0.359-3.066-0.52-4.325
							c-0.014-0.091-0.028-0.176-0.049-0.26c-0.366-1.66-0.717-3.313-1.062-4.972c-0.64-3.052-1.238-6.119-1.779-9.192
							c-0.345-1.997-0.985-4.135-0.485-6.168c0.556-2.237,2.87-2.708,3.376-4.895c0.204-0.872,0.232-1.772,0.422-2.651
							c0.577-2.581,2.721-4.754,5.303-5.359c4.016-0.949,8.257,1.667,12.252,0.626c1.034-0.274,1.997-0.781,2.996-1.161
							c3.172-1.217,7.138-0.978,9.495,1.463C431.166,290.37,431.82,291.833,431.49,293.211z"/>
					</g>
				</g>
				<g id="XMLID_1680_">
					<path id="XMLID_1681_" style="fill:#FFFFFF;" d="M398.732,319.92c-0.01,0-0.019-0.001-0.029-0.001
						c-0.193-0.015-0.338-0.185-0.322-0.378c1.749-22.046,23.338-29.143,28.588-29.718c0.19-0.019,0.366,0.118,0.388,0.311
						c0.021,0.193-0.118,0.367-0.311,0.388c-5.135,0.563-26.252,7.506-27.965,29.075C399.067,319.78,398.913,319.92,398.732,319.92z
						"/>
				</g>
				<g id="XMLID_1678_">
					<path id="XMLID_1679_" style="fill:#FFFFFF;" d="M421.386,304.759c-0.069,0-0.139-0.021-0.201-0.063
						c-0.066-0.046-6.734-4.579-15.849-1.483c-0.184,0.06-0.384-0.036-0.447-0.22c-0.063-0.184,0.036-0.384,0.22-0.446
						c9.467-3.214,16.409,1.524,16.478,1.572c0.159,0.111,0.198,0.33,0.087,0.49C421.606,304.706,421.497,304.759,421.386,304.759z"
						/>
				</g>
			</g>
		</g>
	</g>
</g>
<g id="PopCorn">
	<g id="XMLID_1315_">
		<path id="XMLID_1305_" style="fill:#F5F5F5;" d="M214.326,195.279c0.695-0.87,1.127-1.958,1.127-3.157
			c0-2.809-2.277-5.086-5.086-5.086c-1.441,0-2.735,0.605-3.661,1.567c0.052-0.515,0.079-1.038,0.079-1.567
			c0-8.52-6.907-15.427-15.427-15.427c-2.766,0-5.355,0.737-7.6,2.012c0.356-0.821,0.555-1.725,0.555-2.677
			c0-3.723-3.018-6.742-6.742-6.742c-1.264,0-2.443,0.354-3.454,0.96c0.107-0.782,0.182-1.574,0.182-2.385
			c0-9.645-7.819-17.464-17.464-17.464c-6.756,0-12.605,3.843-15.509,9.457c-0.929-2.186-3.096-3.718-5.621-3.718
			c-2.485,0-4.619,1.487-5.572,3.617c-2.418-3.886-6.714-6.481-11.628-6.481c-7.566,0-13.699,6.133-13.699,13.699
			c0,0.696,0.069,1.374,0.169,2.043c-0.874-0.709-1.973-1.151-3.186-1.151c-2.809,0-5.086,2.277-5.086,5.086
			c0,0.018,0.005,0.035,0.005,0.054c-1.791-1.035-3.864-1.637-6.081-1.637c-6.16,0-11.239,4.576-12.056,10.512
			c-0.834-0.315-1.733-0.495-2.677-0.495c-4.19,0-7.587,3.397-7.587,7.587c0,0.95,0.182,1.855,0.501,2.693
			c-6.554,2.612-11.192,9.003-11.192,16.488c0,9.806,7.95,17.756,17.756,17.756l63.742,42.95l68.194-43.898
			c7.347,0,13.304-5.956,13.304-13.304C220.614,201.798,218.096,197.628,214.326,195.279z M205.392,193.417
			c0.015-0.033,0.032-0.064,0.047-0.096c0.007,0.029,0.019,0.056,0.026,0.085C205.44,193.41,205.416,193.414,205.392,193.417z"/>
		<path id="XMLID_1783_" style="fill:#F0F0F0;" d="M90.629,166.279c-6.16,0-11.239,4.576-12.056,10.512
			c-0.834-0.315-1.733-0.495-2.677-0.495c-4.19,0-7.587,3.397-7.587,7.587c0,0.95,0.182,1.855,0.501,2.693
			c-6.554,2.612-11.192,9.003-11.192,16.488c0,9.806,7.95,17.756,17.756,17.756l63.742,42.95l63.525-40.892l1.627-6.104
			c-8.652,11.224-20.212,2.289-20.212,2.289s-0.878,5.732-5.719,6.079c-4.841,0.347-6.609-3.653-6.609-3.653
			s-1.496,8.204-10.943,9.954c-9.447,1.749-14.955-8.612-14.955-8.612s-1.772,4.672-6.714,3.416c-4.942-1.256-3.19-3.961-3.19-3.961
			s-2.808,2.464-7.634-0.11c-4.826-2.574-5.167-10.148-5.167-10.148s-8.176,3.67-15.174-2.978
			c-6.998-6.648-1.074-15.785-1.074-15.785c-10.521,2.06-10.129-6.571-10.129-6.571C82.046,184.631,83.108,170.21,90.629,166.279z"
			/>
		<g id="XMLID_818_">
			<polygon id="XMLID_821_" style="fill:#FAFAFA;" points="155.529,244.912 153.298,377.533 167.17,369.523 171.729,235.559 			"/>
			<polygon id="XMLID_1262_" style="fill:#27DEBF;" points="171.729,235.559 167.17,369.523 180.986,361.547 187.974,226.18 			"/>
			<path id="XMLID_1264_" style="fill:#27DEBF;" d="M143.704,251.739c-1.196,0.69-2.763,1.036-4.33,1.036v131.333
				c1.567,0,3.134-0.345,4.33-1.036l9.594-5.539l2.231-132.62L143.704,251.739z"/>
			<path id="XMLID_1285_" style="fill:#27DEBF;" d="M194.74,353.606l9.358-5.403c2.391-1.381,4.526-4.73,4.769-7.481l11.747-133.387
				l-16.346,9.438L194.74,353.606z"/>
			<polygon id="XMLID_1292_" style="fill:#FAFAFA;" points="187.974,226.18 180.986,361.547 194.74,353.606 204.268,216.773 			"/>
		</g>
		<g id="XMLID_808_">
			<polygon id="XMLID_825_" style="fill:#27DEBF;" points="123.218,244.912 125.449,377.533 111.577,369.523 107.019,235.559 			"/>
			<polygon id="XMLID_824_" style="fill:#E6E6E6;" points="107.019,235.559 111.577,369.523 97.762,361.547 90.774,226.18 			"/>
			<path id="XMLID_823_" style="fill:#E6E6E6;" d="M135.044,251.739c1.196,0.69,2.763,1.036,4.33,1.036v131.333
				c-1.567,0-3.134-0.345-4.33-1.036l-9.594-5.539l-2.231-132.62L135.044,251.739z"/>
			<path id="XMLID_822_" style="fill:#E6E6E6;" d="M84.008,353.606l-9.358-5.403c-2.392-1.381-4.527-4.73-4.769-7.481
				L58.134,207.335l16.346,9.438L84.008,353.606z"/>
			<polygon id="XMLID_820_" style="fill:#27DEBF;" points="90.774,226.18 97.762,361.547 84.008,353.606 74.48,216.773 			"/>
			<polygon id="XMLID_826_" style="opacity:0.1;" points="123.218,244.912 125.449,377.533 111.577,369.523 107.019,235.559 			"/>
			<polygon id="XMLID_805_" style="opacity:0.1;" points="90.774,226.18 97.762,361.547 84.008,353.606 74.48,216.773 			"/>
		</g>
		<g id="XMLID_1313_">
			<path id="XMLID_1310_" style="fill:#E0E0E0;" d="M135.926,222.284c-1.535,2.114-4.025,3.489-6.835,3.489
				c-4.657,0-8.433-3.776-8.433-8.433c0-3.893,2.639-7.169,6.224-8.141c-1.009,1.386-1.604,3.101-1.604,4.944
				c0,4.657,3.781,8.433,8.438,8.433C134.481,222.576,135.219,222.475,135.926,222.284z"/>
			<path id="XMLID_1255_" style="fill:#E0E0E0;" d="M145.83,222.829c0.184,1.691-0.417,3.444-1.772,4.672
				c-2.247,2.036-5.72,1.865-7.756-0.382c-1.702-1.878-1.861-4.613-0.556-6.65c0.119,1.11,0.582,2.198,1.388,3.087
				c2.036,2.247,5.512,2.416,7.759,0.38C145.261,223.602,145.573,223.23,145.83,222.829z"/>
		</g>
		<g id="XMLID_806_">
			<path id="XMLID_1309_" style="fill:#E0E0E0;" d="M112.193,182.891c1.43,2.186,1.83,5.003,0.832,7.628
				c-1.656,4.353-6.527,6.54-10.88,4.885c-3.638-1.384-5.763-5.015-5.397-8.711c0.937,1.436,2.329,2.602,4.051,3.257
				c4.353,1.656,9.226-0.536,10.882-4.89C111.953,184.345,112.121,183.619,112.193,182.891z"/>
			<path id="XMLID_1312_" style="fill:#E0E0E0;" d="M99.128,190.898c0.788,1.507,0.87,3.358,0.056,4.996
				c-1.348,2.716-4.644,3.825-7.36,2.477c-2.27-1.127-3.417-3.615-2.947-5.987c0.516,0.99,1.345,1.833,2.419,2.367
				c2.716,1.348,6.013,0.236,7.361-2.48C98.88,191.825,99.035,191.365,99.128,190.898z"/>
		</g>
		<g id="XMLID_1314_">
			<path id="XMLID_1306_" style="fill:#E0E0E0;" d="M186.455,203.199c0.156,2.607-0.894,5.251-3.065,7.035
				c-3.598,2.957-8.912,2.438-11.869-1.16c-2.472-3.007-2.513-7.214-0.361-10.241c0.101,1.711,0.73,3.414,1.9,4.838
				c2.957,3.598,8.276,4.114,11.874,1.157C185.525,204.341,186.031,203.795,186.455,203.199z"/>
			<path id="XMLID_1307_" style="fill:#E0E0E0;" d="M195.594,199.218c0.184,1.691-0.417,3.444-1.772,4.672
				c-2.247,2.036-5.72,1.865-7.756-0.382c-1.702-1.878-1.861-4.613-0.556-6.65c0.119,1.11,0.582,2.198,1.388,3.087
				c2.036,2.247,5.512,2.416,7.759,0.38C195.025,199.991,195.337,199.62,195.594,199.218z"/>
			<path id="XMLID_1308_" style="fill:#E0E0E0;" d="M171.797,189.941c1.522,0.759,2.672,2.212,2.973,4.016
				c0.499,2.991-1.522,5.821-4.513,6.32c-2.5,0.417-4.887-0.927-5.895-3.126c0.998,0.5,2.164,0.698,3.347,0.501
				c2.991-0.499,5.012-3.332,4.513-6.323C172.139,190.837,171.995,190.374,171.797,189.941z"/>
		</g>
	</g>
</g>
<g id="Film">
	<g id="XMLID_1462_">
		<g id="XMLID_1355_">
			<g id="XMLID_1442_">
				<path id="XMLID_1451_" style="fill:#27DEBF;" d="M349.531,85.967c-12.884-7.18-30.555-5.998-50.052,5.255
					c-39.444,22.779-71.424,78.164-71.424,123.703c0,25.27,9.846,42.198,25.338,48.381c12.435,4.962,28.523,2.999,46.086-7.141
					c39.444-22.779,71.424-78.155,71.424-123.703C370.904,109.43,362.718,93.323,349.531,85.967z M350.234,113.592
					c-4.015,4.376-8.244,9.162-12.474,14.193c-8.977,10.608-17.69,22.144-24.01,31.463c-1.045,1.504-1.983,2.95-2.862,4.308
					c-0.889-0.694-2.042-0.996-3.341-0.908c0.303-1.055,0.606-2.169,0.908-3.331c-0.537,0.811-1.045,1.592-1.543,2.354
					c-0.879-0.694-2.032-0.996-3.341-0.908c0.42-1.446,0.84-3.009,1.26-4.64c2.706-10.247,5.421-23.385,7.092-35.976
					c0.84-5.851,1.465-11.634,1.934-16.967c9.641-2.598,18.237-1.69,25.065,2.286C343.309,107.115,347.128,109.85,350.234,113.592z
					 M252.69,165.734c7.414-17.475,18.95-34.022,32.459-45.979c0.147,1.68,0.313,3.38,0.508,5.099
					c1.143-1.104,2.296-2.178,3.468-3.214c0.41,4.816,1.035,9.885,1.875,14.76c1.719,10.637,4.386,20.679,7.102,27.781
					c0.41,1.153,0.879,2.208,1.25,3.194c-1.309,1.416-2.403,3.018-3.341,4.767c-0.889-0.332-1.827-0.693-2.823-1.026
					c-6.31-2.022-15.023-3.497-24.059-3.702c-4.171-0.186-8.401-0.098-12.474,0.205c0.303-0.713,0.615-1.426,0.928-2.13
					C255.933,165.529,254.302,165.616,252.69,165.734z M260.153,241.173c-1.153-0.977-2.227-2.061-3.233-3.243
					c-0.254,0.459-0.488,0.908-0.733,1.358c-7.775-6.603-12.474-18.052-12.474-33.417c0-1.143,0.059-2.325,0.059-3.468
					c4.327-1.475,9.026-3.165,13.724-5.089c10.022-4.103,20.406-9.436,28.386-14.34c1.309-0.821,2.559-1.602,3.712-2.383
					c0.098,1.543,0.479,2.764,1.143,3.712c0.987-0.625,1.934-1.221,2.823-1.827c0.098,1.622,0.518,2.891,1.25,3.858
					c-0.996,1.231-2.032,2.618-3.077,4.064c-6.633,9.075-14.672,21.246-21.92,33.632
					C266.366,229.813,263.132,235.595,260.153,241.173z M303.475,239.971c-7.043,4.064-13.832,6.476-20.044,7.228
					c0.371-0.938,0.742-1.885,1.104-2.843c-1.729,0.44-3.419,0.762-5.07,0.957c2.247-5.695,4.435-11.722,6.525-17.866
					c4.484-13.138,8.244-26.52,10.491-36.679c0.361-1.592,0.625-3.126,0.938-4.571c0.674-0.215,1.358-0.547,2.09-0.967
					c0.674-0.391,1.358-0.85,2.032-1.416l0.049-0.029c0.264,1.113,0.527,2.344,0.947,3.497c0.029,0.098,0.059,0.186,0.088,0.283
					c0.273-0.127,0.557-0.283,0.85-0.449c0.674-0.391,1.358-0.84,2.032-1.416l0.059-0.029c0.254,1.114,0.518,2.354,0.938,3.497
					c2.237,7.561,5.949,16.625,10.491,24.557c2.081,3.731,4.279,7.228,6.515,10.335
					C317.306,230.477,310.566,235.869,303.475,239.971z M343.084,188.659c-0.098,0.215-0.205,0.42-0.313,0.635
					c-2.921-2.169-6.212-4.181-9.602-6.027c-0.733-0.41-1.485-0.801-2.237-1.182c-5.441-2.423-10.989-4.19-15.766-5.216
					c-1.045-0.244-2.09-0.42-3.028-0.537c0.147-0.352,0.274-0.694,0.391-1.045c-0.449-0.107-0.899-0.205-1.338-0.303
					c-1.035-0.244-2.081-0.42-3.018-0.537c0.723-1.817,1.143-3.556,1.25-5.304c1.143-0.547,2.403-1.211,3.653-1.876
					c7.981-4.308,18.364-10.96,28.445-18.471c4.698-3.487,9.338-7.199,13.666-10.725c0,1.153,0.059,2.266,0.059,3.409
					c0,0.547-0.01,1.104-0.02,1.661c1.338-1.075,2.647-2.139,3.936-3.184c0,1.153,0.049,2.266,0.049,3.409
					c0,15.365-4.698,32.245-12.474,47.815C345.575,190.32,344.354,189.48,343.084,188.659z"/>
				<path id="XMLID_1443_" style="opacity:0.4;fill:#FFFFFF;" d="M349.531,85.967c-12.884-7.18-30.555-5.998-50.052,5.255
					c-39.444,22.779-71.424,78.164-71.424,123.703c0,25.27,9.846,42.198,25.338,48.381c12.435,4.962,28.523,2.999,46.086-7.141
					c39.444-22.779,71.424-78.155,71.424-123.703C370.904,109.43,362.718,93.323,349.531,85.967z M350.234,113.592
					c-4.015,4.376-8.244,9.162-12.474,14.193c-8.977,10.608-17.69,22.144-24.01,31.463c-1.045,1.504-1.983,2.95-2.862,4.308
					c-0.889-0.694-2.042-0.996-3.341-0.908c0.303-1.055,0.606-2.169,0.908-3.331c-0.537,0.811-1.045,1.592-1.543,2.354
					c-0.879-0.694-2.032-0.996-3.341-0.908c0.42-1.446,0.84-3.009,1.26-4.64c2.706-10.247,5.421-23.385,7.092-35.976
					c0.84-5.851,1.465-11.634,1.934-16.967c9.641-2.598,18.237-1.69,25.065,2.286C343.309,107.115,347.128,109.85,350.234,113.592z
					 M252.69,165.734c7.414-17.475,18.95-34.022,32.459-45.979c0.147,1.68,0.313,3.38,0.508,5.099
					c1.143-1.104,2.296-2.178,3.468-3.214c0.41,4.816,1.035,9.885,1.875,14.76c1.719,10.637,4.386,20.679,7.102,27.781
					c0.41,1.153,0.879,2.208,1.25,3.194c-1.309,1.416-2.403,3.018-3.341,4.767c-0.889-0.332-1.827-0.693-2.823-1.026
					c-6.31-2.022-15.023-3.497-24.059-3.702c-4.171-0.186-8.401-0.098-12.474,0.205c0.303-0.713,0.615-1.426,0.928-2.13
					C255.933,165.529,254.302,165.616,252.69,165.734z M260.153,241.173c-1.153-0.977-2.227-2.061-3.233-3.243
					c-0.254,0.459-0.488,0.908-0.733,1.358c-7.775-6.603-12.474-18.052-12.474-33.417c0-1.143,0.059-2.325,0.059-3.468
					c4.327-1.475,9.026-3.165,13.724-5.089c10.022-4.103,20.406-9.436,28.386-14.34c1.309-0.821,2.559-1.602,3.712-2.383
					c0.098,1.543,0.479,2.764,1.143,3.712c0.987-0.625,1.934-1.221,2.823-1.827c0.098,1.622,0.518,2.891,1.25,3.858
					c-0.996,1.231-2.032,2.618-3.077,4.064c-6.633,9.075-14.672,21.246-21.92,33.632
					C266.366,229.813,263.132,235.595,260.153,241.173z M303.475,239.971c-7.043,4.064-13.832,6.476-20.044,7.228
					c0.371-0.938,0.742-1.885,1.104-2.843c-1.729,0.44-3.419,0.762-5.07,0.957c2.247-5.695,4.435-11.722,6.525-17.866
					c4.484-13.138,8.244-26.52,10.491-36.679c0.361-1.592,0.625-3.126,0.938-4.571c0.674-0.215,1.358-0.547,2.09-0.967
					c0.674-0.391,1.358-0.85,2.032-1.416l0.049-0.029c0.264,1.113,0.527,2.344,0.947,3.497c0.029,0.098,0.059,0.186,0.088,0.283
					c0.273-0.127,0.557-0.283,0.85-0.449c0.674-0.391,1.358-0.84,2.032-1.416l0.059-0.029c0.254,1.114,0.518,2.354,0.938,3.497
					c2.237,7.561,5.949,16.625,10.491,24.557c2.081,3.731,4.279,7.228,6.515,10.335
					C317.306,230.477,310.566,235.869,303.475,239.971z M343.084,188.659c-0.098,0.215-0.205,0.42-0.313,0.635
					c-2.921-2.169-6.212-4.181-9.602-6.027c-0.733-0.41-1.485-0.801-2.237-1.182c-5.441-2.423-10.989-4.19-15.766-5.216
					c-1.045-0.244-2.09-0.42-3.028-0.537c0.147-0.352,0.274-0.694,0.391-1.045c-0.449-0.107-0.899-0.205-1.338-0.303
					c-1.035-0.244-2.081-0.42-3.018-0.537c0.723-1.817,1.143-3.556,1.25-5.304c1.143-0.547,2.403-1.211,3.653-1.876
					c7.981-4.308,18.364-10.96,28.445-18.471c4.698-3.487,9.338-7.199,13.666-10.725c0,1.153,0.059,2.266,0.059,3.409
					c0,0.547-0.01,1.104-0.02,1.661c1.338-1.075,2.647-2.139,3.936-3.184c0,1.153,0.049,2.266,0.049,3.409
					c0,15.365-4.698,32.245-12.474,47.815C345.575,190.32,344.354,189.48,343.084,188.659z"/>
			</g>
			<path id="XMLID_1434_" style="fill:#27DEBF;" d="M349.531,85.967c-12.435-4.962-28.523-2.999-46.086,7.14
				c-39.444,22.779-71.424,78.164-71.424,123.713c0,23.033,8.186,39.131,21.373,46.486c12.884,7.18,30.555,5.998,50.052-5.255
				c39.444-22.769,71.424-78.155,71.424-123.703C374.87,109.079,365.023,92.151,349.531,85.967z M312.53,175.287
				c0.488-1.436,0.772-2.852,0.86-4.259c1.143-0.547,2.403-1.211,3.653-1.876c7.98-4.308,18.374-10.96,28.445-18.462
				c3.302-2.462,6.574-5.021,9.739-7.551c1.338-1.075,2.647-2.139,3.936-3.184c0,1.153,0.049,2.266,0.049,3.409
				c0,15.365-4.698,32.245-12.474,47.815c-1.162-0.86-2.383-1.7-3.653-2.52c-1.905-1.221-3.907-2.393-5.949-3.507
				c-2.022-1.114-4.103-2.139-6.203-3.067c-5.441-2.423-10.989-4.19-15.766-5.216c-1.045-0.244-2.09-0.42-3.028-0.537
				C312.285,175.98,312.412,175.639,312.53,175.287z M350.234,113.592c-4.015,4.376-8.244,9.162-12.474,14.193
				c-8.977,10.608-17.69,22.144-24.01,31.463c-1.045,1.504-1.983,2.95-2.862,4.308c-0.889-0.694-2.042-0.996-3.341-0.908
				c0.303-1.055,0.606-2.169,0.908-3.331c0.117-0.43,0.225-0.869,0.342-1.309c2.716-10.247,5.421-23.385,7.092-35.976
				c0.84-5.841,1.465-11.634,1.934-16.967c7.853-2.12,15.023-1.905,21.099,0.4C343.309,107.115,347.128,109.85,350.234,113.592z
				 M303.475,187.116c0.674-0.391,1.358-0.84,2.032-1.416l0.059-0.029c0.254,1.114,0.518,2.354,0.938,3.497
				c2.237,7.561,5.949,16.625,10.491,24.557c2.081,3.731,4.279,7.228,6.515,10.335c-6.203,6.418-12.943,11.81-20.034,15.912
				c-7.043,4.064-13.832,6.476-20.044,7.228c0.371-0.938,0.742-1.885,1.104-2.843c1.866-4.845,3.673-9.895,5.421-15.023
				c4.493-13.138,8.244-26.52,10.491-36.669c0.361-1.602,0.625-3.136,0.938-4.581c0.41-0.127,0.821-0.303,1.241-0.518
				C302.898,187.438,303.181,187.282,303.475,187.116z M247.679,207.756c0-1.143,0.059-2.325,0.059-3.468
				c4.327-1.475,9.026-3.165,13.724-5.089c10.022-4.103,20.406-9.436,28.386-14.34c0.303-0.186,0.596-0.371,0.889-0.557
				c0.987-0.625,1.934-1.221,2.823-1.827c0.098,1.622,0.518,2.891,1.25,3.858c-0.996,1.231-2.032,2.618-3.077,4.064
				c-6.633,9.075-14.672,21.246-21.92,33.632c-3.448,5.783-6.681,11.565-9.661,17.143c-1.153-0.977-2.227-2.061-3.233-3.243
				C251.088,231.102,247.679,220.845,247.679,207.756z M289.125,121.641c0.41,4.816,1.035,9.885,1.875,14.76
				c1.719,10.637,4.386,20.679,7.102,27.781c0.41,1.153,0.879,2.208,1.25,3.194c-1.309,1.416-2.403,3.018-3.341,4.767
				c-0.889-0.332-1.827-0.693-2.823-1.026c-6.31-2.022-15.023-3.497-24.059-3.702c-4.171-0.186-8.401-0.098-12.474,0.205
				c0.303-0.713,0.615-1.426,0.928-2.13c6.76-15.18,16.596-29.529,28.073-40.635C286.8,123.75,287.953,122.676,289.125,121.641z"/>
			<path id="XMLID_1354_" style="opacity:0.15;" d="M349.531,85.967c-12.435-4.962-28.523-2.999-46.086,7.14
				c-39.444,22.779-71.424,78.164-71.424,123.713c0,23.033,8.186,39.131,21.373,46.486c12.884,7.18,30.555,5.998,50.052-5.255
				c39.444-22.769,71.424-78.155,71.424-123.703C374.87,109.079,365.023,92.151,349.531,85.967z M312.53,175.287
				c0.488-1.436,0.772-2.852,0.86-4.259c1.143-0.547,2.403-1.211,3.653-1.876c7.98-4.308,18.374-10.96,28.445-18.462
				c3.302-2.462,6.574-5.021,9.739-7.551c1.338-1.075,2.647-2.139,3.936-3.184c0,1.153,0.049,2.266,0.049,3.409
				c0,15.365-4.698,32.245-12.474,47.815c-1.162-0.86-2.383-1.7-3.653-2.52c-1.905-1.221-3.907-2.393-5.949-3.507
				c-2.022-1.114-4.103-2.139-6.203-3.067c-5.441-2.423-10.989-4.19-15.766-5.216c-1.045-0.244-2.09-0.42-3.028-0.537
				C312.285,175.98,312.412,175.639,312.53,175.287z M350.234,113.592c-4.015,4.376-8.244,9.162-12.474,14.193
				c-8.977,10.608-17.69,22.144-24.01,31.463c-1.045,1.504-1.983,2.95-2.862,4.308c-0.889-0.694-2.042-0.996-3.341-0.908
				c0.303-1.055,0.606-2.169,0.908-3.331c0.117-0.43,0.225-0.869,0.342-1.309c2.716-10.247,5.421-23.385,7.092-35.976
				c0.84-5.841,1.465-11.634,1.934-16.967c7.853-2.12,15.023-1.905,21.099,0.4C343.309,107.115,347.128,109.85,350.234,113.592z
				 M303.475,187.116c0.674-0.391,1.358-0.84,2.032-1.416l0.059-0.029c0.254,1.114,0.518,2.354,0.938,3.497
				c2.237,7.561,5.949,16.625,10.491,24.557c2.081,3.731,4.279,7.228,6.515,10.335c-6.203,6.418-12.943,11.81-20.034,15.912
				c-7.043,4.064-13.832,6.476-20.044,7.228c0.371-0.938,0.742-1.885,1.104-2.843c1.866-4.845,3.673-9.895,5.421-15.023
				c4.493-13.138,8.244-26.52,10.491-36.669c0.361-1.602,0.625-3.136,0.938-4.581c0.41-0.127,0.821-0.303,1.241-0.518
				C302.898,187.438,303.181,187.282,303.475,187.116z M247.679,207.756c0-1.143,0.059-2.325,0.059-3.468
				c4.327-1.475,9.026-3.165,13.724-5.089c10.022-4.103,20.406-9.436,28.386-14.34c0.303-0.186,0.596-0.371,0.889-0.557
				c0.987-0.625,1.934-1.221,2.823-1.827c0.098,1.622,0.518,2.891,1.25,3.858c-0.996,1.231-2.032,2.618-3.077,4.064
				c-6.633,9.075-14.672,21.246-21.92,33.632c-3.448,5.783-6.681,11.565-9.661,17.143c-1.153-0.977-2.227-2.061-3.233-3.243
				C251.088,231.102,247.679,220.845,247.679,207.756z M289.125,121.641c0.41,4.816,1.035,9.885,1.875,14.76
				c1.719,10.637,4.386,20.679,7.102,27.781c0.41,1.153,0.879,2.208,1.25,3.194c-1.309,1.416-2.403,3.018-3.341,4.767
				c-0.889-0.332-1.827-0.693-2.823-1.026c-6.31-2.022-15.023-3.497-24.059-3.702c-4.171-0.186-8.401-0.098-12.474,0.205
				c0.303-0.713,0.615-1.426,0.928-2.13c6.76-15.18,16.596-29.529,28.073-40.635C286.8,123.75,287.953,122.676,289.125,121.641z"/>
			<g id="XMLID_1417_">
				<path id="XMLID_1433_" style="fill:#27DEBF;" d="M294.81,186.335c-0.996,1.231-2.032,2.618-3.077,4.064
					c-6.633,9.075-14.672,21.246-21.92,33.632c-3.448,5.783-6.681,11.565-9.661,17.143c-1.153-0.977-2.227-2.061-3.233-3.243
					c2.774-5.158,5.763-10.471,8.928-15.785c7.248-12.386,15.287-24.557,21.92-33.632c1.035-1.446,2.081-2.833,3.077-4.063
					c-0.039-0.049-0.068-0.098-0.108-0.147c0.987-0.625,1.934-1.221,2.823-1.827C293.658,184.098,294.078,185.368,294.81,186.335z"
					/>
				<path id="XMLID_1432_" style="opacity:0.4;" d="M294.81,186.335c-0.996,1.231-2.032,2.618-3.077,4.064
					c-6.633,9.075-14.672,21.246-21.92,33.632c-3.448,5.783-6.681,11.565-9.661,17.143c-1.153-0.977-2.227-2.061-3.233-3.243
					c2.774-5.158,5.763-10.471,8.928-15.785c7.248-12.386,15.287-24.557,21.92-33.632c1.035-1.446,2.081-2.833,3.077-4.063
					c-0.039-0.049-0.068-0.098-0.108-0.147c0.987-0.625,1.934-1.221,2.823-1.827C293.658,184.098,294.078,185.368,294.81,186.335z"
					/>
			</g>
			<g id="XMLID_1413_">
				<path id="XMLID_1416_" style="fill:#27DEBF;" d="M323.509,224.059c-6.203,6.418-12.943,11.81-20.034,15.912
					c-7.043,4.064-13.832,6.476-20.044,7.228c0.371-0.938,0.742-1.885,1.104-2.843c4.757-1.192,9.797-3.292,14.975-6.281
					c7.092-4.093,13.832-9.485,20.034-15.902c-2.237-3.106-4.435-6.603-6.525-10.335c-4.474-7.834-8.156-16.772-10.393-24.274
					c0.273-0.127,0.557-0.283,0.85-0.449c0.674-0.391,1.358-0.84,2.032-1.416l0.059-0.029c0.254,1.114,0.518,2.354,0.938,3.497
					c2.237,7.561,5.949,16.625,10.491,24.557C319.074,217.456,321.272,220.953,323.509,224.059z"/>
				<path id="XMLID_1415_" style="opacity:0.3;" d="M323.509,224.059c-6.203,6.418-12.943,11.81-20.034,15.912
					c-7.043,4.064-13.832,6.476-20.044,7.228c0.371-0.938,0.742-1.885,1.104-2.843c4.757-1.192,9.797-3.292,14.975-6.281
					c7.092-4.093,13.832-9.485,20.034-15.902"/>
				<path id="XMLID_1414_" style="opacity:0.4;" d="M316.994,213.724c-4.542-7.932-8.254-16.996-10.491-24.557
					c-0.42-1.143-0.684-2.383-0.938-3.497l-0.059,0.029c-0.674,0.576-1.358,1.026-2.032,1.416c-0.293,0.166-0.576,0.322-0.85,0.449
					c2.237,7.502,5.92,16.44,10.393,24.274c2.09,3.731,4.288,7.228,6.525,10.335l3.966,1.885
					C321.272,220.953,319.074,217.456,316.994,213.724z"/>
			</g>
			<g id="XMLID_1402_">
				<path id="XMLID_1412_" style="fill:#27DEBF;" d="M330.933,182.085c-5.441-2.423-10.989-4.19-15.766-5.216
					c-1.045-0.244-2.09-0.42-3.028-0.537c0.147-0.352,0.274-0.694,0.391-1.045C318.195,176.625,324.769,178.95,330.933,182.085z"/>
				<path id="XMLID_1411_" style="fill:#27DEBF;" d="M359.211,143.365c0,15.365-4.698,32.245-12.474,47.815
					c-1.162-0.86-2.383-1.7-3.653-2.52c7.316-14.828,11.829-30.818,12.142-45.519c1.338-1.075,2.647-2.139,3.936-3.184
					C359.163,141.108,359.211,142.222,359.211,143.365z"/>
				<path id="XMLID_1410_" style="opacity:0.4;" d="M330.933,182.085c-5.441-2.423-10.989-4.19-15.766-5.216
					c-1.045-0.244-2.09-0.42-3.028-0.537c0.147-0.352,0.274-0.694,0.391-1.045C318.195,176.625,324.769,178.95,330.933,182.085z"/>
				<path id="XMLID_1409_" style="opacity:0.3;" d="M359.211,143.365c0,15.365-4.698,32.245-12.474,47.815
					c-1.162-0.86-2.383-1.7-3.653-2.52c7.316-14.828,11.829-30.818,12.142-45.519c1.338-1.075,2.647-2.139,3.936-3.184
					C359.163,141.108,359.211,142.222,359.211,143.365z"/>
			</g>
			<g id="XMLID_1372_">
				<path id="XMLID_1374_" style="fill:#27DEBF;" d="M350.234,113.592c-4.015,4.376-8.244,9.162-12.474,14.193
					c-8.977,10.608-17.69,22.144-24.01,31.463c-1.045,1.504-1.983,2.95-2.862,4.308c-0.889-0.694-2.042-0.996-3.341-0.908
					c0.303-1.055,0.606-2.169,0.908-3.331c0.43-0.635,0.869-1.289,1.328-1.954c6.32-9.319,15.033-20.855,24.01-31.463
					c4.23-5.031,8.449-9.827,12.474-14.193c-2.13-2.559-4.591-4.65-7.346-6.242C343.309,107.115,347.128,109.85,350.234,113.592z"/>
				<path id="XMLID_1373_" style="opacity:0.4;" d="M350.234,113.592c-4.015,4.376-8.244,9.162-12.474,14.193
					c-8.977,10.608-17.69,22.144-24.01,31.463c-1.045,1.504-1.983,2.95-2.862,4.308c-0.889-0.694-2.042-0.996-3.341-0.908
					c0.303-1.055,0.606-2.169,0.908-3.331c0.43-0.635,0.869-1.289,1.328-1.954c6.32-9.319,15.033-20.855,24.01-31.463
					c4.23-5.031,8.449-9.827,12.474-14.193c-2.13-2.559-4.591-4.65-7.346-6.242C343.309,107.115,347.128,109.85,350.234,113.592z"/>
			</g>
			<g id="XMLID_1359_">
				<path id="XMLID_1371_" style="fill:#27DEBF;" d="M299.352,167.375c-1.309,1.416-2.403,3.018-3.341,4.767
					c-0.889-0.332-1.827-0.693-2.823-1.026c-6.31-2.022-15.023-3.497-24.059-3.702c-4.171-0.186-8.401-0.098-12.474,0.205
					c0.303-0.713,0.615-1.426,0.928-2.13c2.52-0.088,5.06-0.078,7.58,0.029c9.026,0.215,17.749,1.69,24.059,3.712
					c0.996,0.332,1.934,0.693,2.823,1.026c0.938-1.749,2.032-3.35,3.341-4.767c-0.371-0.987-0.84-2.042-1.26-3.194
					c-2.706-7.111-5.372-17.143-7.092-27.781c-0.547-3.175-1.006-6.437-1.377-9.661c1.143-1.104,2.296-2.178,3.468-3.214
					c0.41,4.816,1.035,9.885,1.875,14.76c1.719,10.637,4.386,20.679,7.102,27.781C298.512,165.333,298.981,166.388,299.352,167.375z
					"/>
				<path id="XMLID_1364_" style="opacity:0.4;" d="M295.387,165.49c-1.309,1.416-2.403,3.018-3.341,4.767
					c-0.889-0.332-1.827-0.693-2.823-1.026c-6.31-2.022-15.033-3.497-24.059-3.712c-2.52-0.107-5.06-0.117-7.58-0.029
					c-0.313,0.703-0.625,1.416-0.928,2.13c4.073-0.303,8.303-0.391,12.474-0.205c9.035,0.205,17.749,1.68,24.059,3.702
					c0.996,0.332,1.934,0.694,2.823,1.026c0.938-1.748,2.032-3.35,3.341-4.767L295.387,165.49z"/>
				<path id="XMLID_1362_" style="opacity:0.3;" d="M295.387,165.49c-0.371-0.987-0.84-2.042-1.26-3.194
					c-2.706-7.111-5.372-17.143-7.092-27.781c-0.547-3.175-1.006-6.437-1.377-9.661c1.143-1.104,2.296-2.178,3.468-3.214
					c0.41,4.816,1.035,9.885,1.875,14.76c1.719,10.637,4.386,20.679,7.102,27.781c0.41,1.153,0.879,2.208,1.25,3.194"/>
			</g>
		</g>
		<g id="XMLID_1460_">
			<path id="XMLID_1478_" style="fill:#455A64;" d="M337.764,113.223l30.143,17.392c-0.947-0.543-1.937-1.022-2.959-1.426
				c-8.771-3.491-20.106-2.107-32.485,5.035c-27.802,16.051-50.335,55.093-50.335,87.195c0,15.721,5.418,26.865,14.199,32.262
				l-29.792-17.232l0,0c-9.058-5.279-14.678-16.519-14.678-32.517c0-32.102,22.544-71.144,50.346-87.195
				c12.379-7.142,23.715-8.526,32.474-5.035C335.753,112.126,336.774,112.648,337.764,113.223L337.764,113.223z"/>
			<path id="XMLID_1461_" style="fill:#37474F;" d="M269.2,231.84c-7.746-4.515-12.021-14.431-12.021-27.91
				c0-30.358,21.391-67.407,47.685-82.587c6.982-4.028,13.837-6.158,19.822-6.158c2.894,0,5.593,0.491,8.021,1.458
				c0.75,0.297,1.526,0.682,2.384,1.18l9.608,5.544c-4.846,1.235-9.827,3.321-14.895,6.245
				c-29.223,16.872-52.997,58.055-52.997,91.805c0,5.833,0.692,11.198,2.032,15.998L269.2,231.84z"/>
			<path id="XMLID_1351_" style="fill:#37474F;" d="M364.944,129.191c-8.764-3.497-20.103-2.114-32.481,5.033
				c-27.799,16.055-50.339,55.09-50.339,87.192c0,16.233,5.769,27.579,15.063,32.763c9.081,5.06,21.535,4.227,35.276-3.704
				c27.799-16.048,50.339-55.083,50.339-87.185C382.803,145.48,375.863,133.549,364.944,129.191z"/>
			<path id="XMLID_1470_" style="fill:#455A64;" d="M251.975,200.082l30.272,17.478c0.124-2.299,0.36-4.626,0.695-6.972
				l-30.272-17.478C252.334,195.455,252.099,197.783,251.975,200.082z"/>
			<path id="XMLID_1471_" style="fill:#455A64;" d="M292.49,123.435l30.273,17.478c1.839-1.477,3.716-2.852,5.621-4.128
				l-30.274-17.479C296.205,120.583,294.329,121.958,292.49,123.435z"/>
			<path id="XMLID_1472_" style="fill:#455A64;" d="M278.158,137.666c-1.365,1.646-2.69,3.342-3.974,5.079l30.272,17.477
				c1.285-1.737,2.609-3.433,3.974-5.079L278.158,137.666z"/>
			<path id="XMLID_1473_" style="fill:#455A64;" d="M261.899,163.297c-0.918,1.944-1.778,3.907-2.583,5.882l30.272,17.478
				c0.806-1.975,1.665-3.938,2.583-5.882L261.899,163.297z"/>
		</g>
		<g id="XMLID_1474_">
			<path id="XMLID_1498_" style="fill:#263238;" d="M367.907,130.618c-0.947-0.547-1.934-1.026-2.96-1.426
				c-8.313-3.311-18.911-2.247-30.535,3.956c4.415-2.432,11.263-6.105,18.989-10.901L367.907,130.618z"/>
			<path id="XMLID_1475_" style="fill:#455A64;" d="M332.464,134.219c14.463-8.126,72.663-36.95,72.663-78.185l-30.26-17.484
				c0,41.235-58.199,70.059-72.663,78.185l5.375,3.106l4.569-3.001l20.37,11.769l-5.285,2.587L332.464,134.219z"/>
			<path id="XMLID_1476_" style="fill:#37474F;" d="M312.147,116.84c20.345-11.269,61.231-35.749,66.936-70.212l21.062,12.169
				c-2.405,34.153-48.771,59.503-66.515,69.204c-0.385,0.21-0.756,0.413-1.113,0.609L312.147,116.84z"/>
			<path id="XMLID_1480_" style="fill:#455A64;" d="M349.842,84.977c-1.529,1.397-3.09,2.756-4.671,4.076l30.334,17.423
				c1.58-1.321,3.14-2.68,4.667-4.078L349.842,84.977z"/>
			<path id="XMLID_1484_" style="fill:#455A64;" d="M325.853,103.057c-1.936,1.237-3.829,2.407-5.659,3.509l30.348,17.431
				c1.829-1.103,3.721-2.273,5.656-3.51L325.853,103.057z"/>
			<path id="XMLID_1494_" style="fill:#455A64;" d="M367.859,63.241c-0.962,1.688-2.004,3.344-3.119,4.968l30.311,17.41
				c1.113-1.625,2.153-3.282,3.112-4.971L367.859,63.241z"/>
			<path id="XMLID_1477_" style="fill:#37474F;" d="M312.147,116.84c-4.734,2.597-8.868,5.45-8.868,5.45l20.006,11.55
				c0,0,4.185-2.461,9.233-5.231L312.147,116.84z"/>
		</g>
		<g id="XMLID_1350_">
			<g id="XMLID_1331_">
				<path id="XMLID_807_" style="fill:#27DEBF;" d="M377.304,102.017c-12.884-7.18-30.555-5.998-50.052,5.255
					c-39.444,22.779-71.424,78.164-71.424,123.703c0,25.27,9.846,42.198,25.339,48.381c12.435,4.962,28.523,2.999,46.086-7.141
					c39.444-22.779,71.424-78.155,71.424-123.703C398.677,125.48,390.491,109.373,377.304,102.017z M378.008,129.642
					c-4.015,4.376-8.244,9.162-12.474,14.193c-8.977,10.608-17.69,22.144-24.01,31.463c-1.045,1.504-1.983,2.95-2.862,4.308
					c-0.889-0.693-2.042-0.996-3.341-0.908c0.303-1.055,0.606-2.169,0.909-3.331c-0.537,0.811-1.045,1.592-1.543,2.354
					c-0.879-0.694-2.032-0.996-3.341-0.908c0.42-1.446,0.84-3.009,1.26-4.64c2.706-10.247,5.421-23.385,7.092-35.976
					c0.84-5.851,1.465-11.634,1.934-16.967c9.641-2.598,18.237-1.69,25.065,2.286C371.082,123.165,374.901,125.9,378.008,129.642z
					 M280.463,181.784c7.414-17.475,18.95-34.022,32.46-45.978c0.147,1.68,0.313,3.38,0.508,5.099
					c1.143-1.104,2.296-2.178,3.468-3.214c0.41,4.816,1.035,9.885,1.876,14.76c1.719,10.637,4.386,20.679,7.101,27.781
					c0.41,1.153,0.879,2.208,1.25,3.194c-1.309,1.416-2.403,3.018-3.341,4.767c-0.889-0.332-1.827-0.694-2.823-1.026
					c-6.31-2.022-15.023-3.497-24.059-3.702c-4.171-0.186-8.401-0.098-12.474,0.205c0.303-0.713,0.615-1.426,0.928-2.13
					C283.706,181.579,282.075,181.667,280.463,181.784z M287.926,257.223c-1.153-0.977-2.227-2.061-3.233-3.243
					c-0.254,0.459-0.488,0.908-0.733,1.358c-7.775-6.603-12.474-18.051-12.474-33.417c0-1.143,0.059-2.325,0.059-3.468
					c4.327-1.475,9.026-3.165,13.724-5.089c10.022-4.103,20.406-9.436,28.386-14.34c1.309-0.82,2.559-1.602,3.712-2.383
					c0.098,1.543,0.479,2.764,1.143,3.712c0.987-0.625,1.934-1.221,2.823-1.827c0.098,1.622,0.518,2.891,1.25,3.859
					c-0.996,1.231-2.032,2.618-3.077,4.063c-6.633,9.075-14.672,21.246-21.92,33.632
					C294.139,245.863,290.905,251.645,287.926,257.223z M331.248,256.021c-7.043,4.064-13.832,6.476-20.044,7.228
					c0.371-0.938,0.742-1.885,1.104-2.842c-1.729,0.44-3.419,0.762-5.07,0.957c2.247-5.695,4.435-11.722,6.525-17.866
					c4.484-13.138,8.244-26.52,10.491-36.679c0.362-1.592,0.625-3.126,0.938-4.572c0.674-0.215,1.358-0.547,2.09-0.967
					c0.674-0.391,1.358-0.85,2.032-1.416l0.049-0.029c0.264,1.114,0.527,2.344,0.948,3.497c0.029,0.098,0.059,0.186,0.088,0.283
					c0.273-0.127,0.557-0.283,0.85-0.449c0.674-0.391,1.358-0.84,2.032-1.416l0.059-0.029c0.254,1.114,0.518,2.354,0.938,3.497
					c2.237,7.56,5.949,16.625,10.491,24.557c2.081,3.731,4.278,7.228,6.515,10.335C345.079,246.527,338.339,251.919,331.248,256.021
					z M370.857,204.71c-0.098,0.215-0.205,0.42-0.313,0.635c-2.921-2.169-6.212-4.181-9.602-6.027
					c-0.733-0.41-1.485-0.801-2.237-1.182c-5.441-2.423-10.989-4.191-15.766-5.216c-1.045-0.244-2.09-0.42-3.028-0.537
					c0.147-0.352,0.273-0.693,0.391-1.045c-0.449-0.107-0.899-0.205-1.338-0.303c-1.035-0.244-2.081-0.42-3.018-0.537
					c0.723-1.817,1.143-3.556,1.25-5.304c1.143-0.547,2.403-1.211,3.653-1.875c7.981-4.308,18.364-10.96,28.445-18.472
					c4.698-3.487,9.338-7.199,13.666-10.725c0,1.153,0.059,2.266,0.059,3.409c0,0.547-0.01,1.104-0.02,1.661
					c1.338-1.074,2.647-2.139,3.937-3.184c0,1.153,0.049,2.266,0.049,3.409c0,15.365-4.698,32.245-12.474,47.815
					C373.348,206.37,372.127,205.53,370.857,204.71z"/>
				<path id="XMLID_1317_" style="opacity:0.4;fill:#FFFFFF;" d="M377.304,102.017c-12.884-7.18-30.555-5.998-50.052,5.255
					c-39.444,22.779-71.424,78.164-71.424,123.703c0,25.27,9.846,42.198,25.339,48.381c12.435,4.962,28.523,2.999,46.086-7.141
					c39.444-22.779,71.424-78.155,71.424-123.703C398.677,125.48,390.491,109.373,377.304,102.017z M378.008,129.642
					c-4.015,4.376-8.244,9.162-12.474,14.193c-8.977,10.608-17.69,22.144-24.01,31.463c-1.045,1.504-1.983,2.95-2.862,4.308
					c-0.889-0.693-2.042-0.996-3.341-0.908c0.303-1.055,0.606-2.169,0.909-3.331c-0.537,0.811-1.045,1.592-1.543,2.354
					c-0.879-0.694-2.032-0.996-3.341-0.908c0.42-1.446,0.84-3.009,1.26-4.64c2.706-10.247,5.421-23.385,7.092-35.976
					c0.84-5.851,1.465-11.634,1.934-16.967c9.641-2.598,18.237-1.69,25.065,2.286C371.082,123.165,374.901,125.9,378.008,129.642z
					 M280.463,181.784c7.414-17.475,18.95-34.022,32.46-45.978c0.147,1.68,0.313,3.38,0.508,5.099
					c1.143-1.104,2.296-2.178,3.468-3.214c0.41,4.816,1.035,9.885,1.876,14.76c1.719,10.637,4.386,20.679,7.101,27.781
					c0.41,1.153,0.879,2.208,1.25,3.194c-1.309,1.416-2.403,3.018-3.341,4.767c-0.889-0.332-1.827-0.694-2.823-1.026
					c-6.31-2.022-15.023-3.497-24.059-3.702c-4.171-0.186-8.401-0.098-12.474,0.205c0.303-0.713,0.615-1.426,0.928-2.13
					C283.706,181.579,282.075,181.667,280.463,181.784z M287.926,257.223c-1.153-0.977-2.227-2.061-3.233-3.243
					c-0.254,0.459-0.488,0.908-0.733,1.358c-7.775-6.603-12.474-18.051-12.474-33.417c0-1.143,0.059-2.325,0.059-3.468
					c4.327-1.475,9.026-3.165,13.724-5.089c10.022-4.103,20.406-9.436,28.386-14.34c1.309-0.82,2.559-1.602,3.712-2.383
					c0.098,1.543,0.479,2.764,1.143,3.712c0.987-0.625,1.934-1.221,2.823-1.827c0.098,1.622,0.518,2.891,1.25,3.859
					c-0.996,1.231-2.032,2.618-3.077,4.063c-6.633,9.075-14.672,21.246-21.92,33.632
					C294.139,245.863,290.905,251.645,287.926,257.223z M331.248,256.021c-7.043,4.064-13.832,6.476-20.044,7.228
					c0.371-0.938,0.742-1.885,1.104-2.842c-1.729,0.44-3.419,0.762-5.07,0.957c2.247-5.695,4.435-11.722,6.525-17.866
					c4.484-13.138,8.244-26.52,10.491-36.679c0.362-1.592,0.625-3.126,0.938-4.572c0.674-0.215,1.358-0.547,2.09-0.967
					c0.674-0.391,1.358-0.85,2.032-1.416l0.049-0.029c0.264,1.114,0.527,2.344,0.948,3.497c0.029,0.098,0.059,0.186,0.088,0.283
					c0.273-0.127,0.557-0.283,0.85-0.449c0.674-0.391,1.358-0.84,2.032-1.416l0.059-0.029c0.254,1.114,0.518,2.354,0.938,3.497
					c2.237,7.56,5.949,16.625,10.491,24.557c2.081,3.731,4.278,7.228,6.515,10.335C345.079,246.527,338.339,251.919,331.248,256.021
					z M370.857,204.71c-0.098,0.215-0.205,0.42-0.313,0.635c-2.921-2.169-6.212-4.181-9.602-6.027
					c-0.733-0.41-1.485-0.801-2.237-1.182c-5.441-2.423-10.989-4.191-15.766-5.216c-1.045-0.244-2.09-0.42-3.028-0.537
					c0.147-0.352,0.273-0.693,0.391-1.045c-0.449-0.107-0.899-0.205-1.338-0.303c-1.035-0.244-2.081-0.42-3.018-0.537
					c0.723-1.817,1.143-3.556,1.25-5.304c1.143-0.547,2.403-1.211,3.653-1.875c7.981-4.308,18.364-10.96,28.445-18.472
					c4.698-3.487,9.338-7.199,13.666-10.725c0,1.153,0.059,2.266,0.059,3.409c0,0.547-0.01,1.104-0.02,1.661
					c1.338-1.074,2.647-2.139,3.937-3.184c0,1.153,0.049,2.266,0.049,3.409c0,15.365-4.698,32.245-12.474,47.815
					C373.348,206.37,372.127,205.53,370.857,204.71z"/>
			</g>
			<path id="XMLID_1348_" style="fill:#27DEBF;" d="M377.304,102.017c-12.435-4.962-28.523-2.999-46.086,7.14
				c-39.444,22.779-71.424,78.164-71.424,123.713c0,23.033,8.186,39.131,21.373,46.486c12.884,7.18,30.555,5.998,50.052-5.255
				c39.444-22.77,71.424-78.155,71.424-123.703C402.643,125.129,392.796,108.201,377.304,102.017z M340.303,191.337
				c0.488-1.436,0.772-2.852,0.86-4.259c1.143-0.547,2.403-1.211,3.653-1.876c7.981-4.308,18.374-10.96,28.445-18.462
				c3.302-2.462,6.574-5.021,9.739-7.551c1.338-1.074,2.647-2.139,3.937-3.184c0,1.153,0.049,2.266,0.049,3.409
				c0,15.365-4.698,32.245-12.474,47.815c-1.162-0.86-2.383-1.7-3.653-2.52c-1.905-1.221-3.907-2.393-5.949-3.507
				c-2.022-1.113-4.103-2.139-6.203-3.067c-5.441-2.423-10.989-4.191-15.766-5.216c-1.045-0.244-2.09-0.42-3.028-0.537
				C340.058,192.031,340.185,191.689,340.303,191.337z M378.008,129.642c-4.015,4.376-8.244,9.162-12.474,14.193
				c-8.977,10.608-17.69,22.144-24.01,31.463c-1.045,1.504-1.983,2.95-2.862,4.308c-0.889-0.693-2.042-0.996-3.341-0.908
				c0.303-1.055,0.606-2.169,0.909-3.331c0.117-0.43,0.225-0.869,0.342-1.309c2.716-10.247,5.421-23.385,7.092-35.976
				c0.84-5.841,1.465-11.634,1.934-16.967c7.854-2.12,15.023-1.905,21.099,0.401C371.082,123.165,374.901,125.9,378.008,129.642z
				 M331.248,203.166c0.674-0.391,1.358-0.84,2.032-1.416l0.059-0.029c0.254,1.114,0.518,2.354,0.938,3.497
				c2.237,7.56,5.949,16.625,10.491,24.557c2.081,3.731,4.278,7.228,6.515,10.335c-6.203,6.418-12.943,11.81-20.034,15.912
				c-7.043,4.064-13.832,6.476-20.044,7.228c0.371-0.938,0.742-1.885,1.104-2.842c1.866-4.845,3.673-9.895,5.421-15.023
				c4.493-13.138,8.244-26.52,10.491-36.669c0.361-1.602,0.625-3.136,0.938-4.581c0.41-0.127,0.82-0.303,1.241-0.518
				C330.671,203.488,330.955,203.332,331.248,203.166z M275.452,223.806c0-1.143,0.059-2.325,0.059-3.468
				c4.327-1.475,9.026-3.165,13.724-5.089c10.022-4.103,20.406-9.436,28.386-14.34c0.303-0.186,0.596-0.371,0.889-0.557
				c0.987-0.625,1.934-1.221,2.823-1.827c0.098,1.622,0.518,2.891,1.25,3.859c-0.996,1.231-2.032,2.618-3.077,4.063
				c-6.633,9.075-14.672,21.246-21.92,33.632c-3.448,5.783-6.681,11.565-9.661,17.143c-1.153-0.977-2.227-2.061-3.233-3.243
				C278.861,247.152,275.452,236.895,275.452,223.806z M316.898,137.691c0.41,4.816,1.035,9.885,1.876,14.76
				c1.719,10.637,4.386,20.679,7.101,27.781c0.41,1.153,0.879,2.208,1.25,3.194c-1.309,1.416-2.403,3.018-3.341,4.767
				c-0.889-0.332-1.827-0.694-2.823-1.026c-6.31-2.022-15.023-3.497-24.059-3.702c-4.171-0.186-8.401-0.098-12.474,0.205
				c0.303-0.713,0.615-1.426,0.928-2.13c6.76-15.18,16.596-29.529,28.074-40.635C314.573,139.8,315.726,138.726,316.898,137.691z"/>
			<g id="XMLID_1346_">
				<path id="XMLID_1347_" style="fill:#27DEBF;" d="M322.583,202.385c-0.996,1.231-2.032,2.618-3.077,4.063
					c-6.633,9.075-14.672,21.246-21.92,33.632c-3.448,5.783-6.681,11.565-9.661,17.143c-1.153-0.977-2.227-2.061-3.233-3.243
					c2.774-5.158,5.763-10.471,8.928-15.785c7.248-12.386,15.287-24.557,21.92-33.632c1.035-1.446,2.081-2.833,3.077-4.063
					c-0.039-0.049-0.068-0.098-0.107-0.146c0.987-0.625,1.934-1.221,2.823-1.827C321.431,200.148,321.851,201.418,322.583,202.385z"
					/>
				<path id="XMLID_1342_" style="opacity:0.3;" d="M322.583,202.385c-0.996,1.231-2.032,2.618-3.077,4.063
					c-6.633,9.075-14.672,21.246-21.92,33.632c-3.448,5.783-6.681,11.565-9.661,17.143c-1.153-0.977-2.227-2.061-3.233-3.243
					c2.774-5.158,5.763-10.471,8.928-15.785c7.248-12.386,15.287-24.557,21.92-33.632c1.035-1.446,2.081-2.833,3.077-4.063
					c-0.039-0.049-0.068-0.098-0.107-0.146c0.987-0.625,1.934-1.221,2.823-1.827C321.431,200.148,321.851,201.418,322.583,202.385z"
					/>
			</g>
			<g id="XMLID_1337_">
				<path id="XMLID_1341_" style="fill:#27DEBF;" d="M351.282,240.109c-6.203,6.418-12.943,11.81-20.034,15.912
					c-7.043,4.064-13.832,6.476-20.044,7.228c0.371-0.938,0.742-1.885,1.104-2.842c4.757-1.192,9.797-3.292,14.974-6.281
					c7.092-4.093,13.832-9.485,20.034-15.902c-2.237-3.106-4.435-6.603-6.525-10.335c-4.474-7.834-8.156-16.772-10.393-24.274
					c0.273-0.127,0.557-0.283,0.85-0.449c0.674-0.391,1.358-0.84,2.032-1.416l0.059-0.029c0.254,1.114,0.518,2.354,0.938,3.497
					c2.237,7.56,5.949,16.625,10.491,24.557C346.847,233.506,349.045,237.003,351.282,240.109z"/>
				<path id="XMLID_1344_" style="opacity:0.2;" d="M351.282,240.109c-6.203,6.418-12.943,11.81-20.034,15.912
					c-7.043,4.064-13.832,6.476-20.044,7.228c0.371-0.938,0.742-1.885,1.104-2.842c4.757-1.192,9.797-3.292,14.974-6.281
					c7.092-4.093,13.832-9.485,20.034-15.902"/>
				<path id="XMLID_1345_" style="opacity:0.3;" d="M344.767,229.774c-4.542-7.932-8.254-16.997-10.491-24.557
					c-0.42-1.143-0.684-2.383-0.938-3.497l-0.059,0.029c-0.674,0.576-1.358,1.026-2.032,1.416c-0.293,0.166-0.576,0.322-0.85,0.449
					c2.237,7.502,5.919,16.44,10.393,24.274c2.09,3.731,4.288,7.228,6.525,10.335l3.966,1.885
					C349.045,237.003,346.847,233.506,344.767,229.774z"/>
			</g>
			<g id="XMLID_1332_">
				<path id="XMLID_1340_" style="fill:#27DEBF;" d="M358.706,198.136c-5.441-2.423-10.989-4.191-15.766-5.216
					c-1.045-0.244-2.09-0.42-3.028-0.537c0.147-0.352,0.273-0.693,0.391-1.045C345.968,192.675,352.542,195,358.706,198.136z"/>
				<path id="XMLID_1339_" style="fill:#27DEBF;" d="M386.984,159.415c0,15.365-4.698,32.245-12.474,47.815
					c-1.162-0.86-2.383-1.7-3.653-2.52c7.316-14.828,11.829-30.818,12.142-45.519c1.338-1.074,2.647-2.139,3.937-3.184
					C386.936,157.158,386.984,158.272,386.984,159.415z"/>
				<path id="XMLID_1336_" style="opacity:0.3;" d="M358.706,198.136c-5.441-2.423-10.989-4.191-15.766-5.216
					c-1.045-0.244-2.09-0.42-3.028-0.537c0.147-0.352,0.273-0.693,0.391-1.045C345.968,192.675,352.542,195,358.706,198.136z"/>
				<path id="XMLID_1335_" style="opacity:0.2;" d="M386.984,159.415c0,15.365-4.698,32.245-12.474,47.815
					c-1.162-0.86-2.383-1.7-3.653-2.52c7.316-14.828,11.829-30.818,12.142-45.519c1.338-1.074,2.647-2.139,3.937-3.184
					C386.936,157.158,386.984,158.272,386.984,159.415z"/>
			</g>
			<g id="XMLID_1316_">
				<path id="XMLID_1338_" style="fill:#27DEBF;" d="M378.008,129.642c-4.015,4.376-8.244,9.162-12.474,14.193
					c-8.977,10.608-17.69,22.144-24.01,31.463c-1.045,1.504-1.983,2.95-2.862,4.308c-0.889-0.693-2.042-0.996-3.341-0.908
					c0.303-1.055,0.606-2.169,0.909-3.331c0.43-0.635,0.869-1.289,1.328-1.954c6.32-9.319,15.033-20.855,24.01-31.463
					c4.23-5.031,8.449-9.827,12.474-14.193c-2.129-2.559-4.591-4.65-7.346-6.242C371.082,123.165,374.901,125.9,378.008,129.642z"/>
				<path id="XMLID_1334_" style="opacity:0.3;" d="M378.008,129.642c-4.015,4.376-8.244,9.162-12.474,14.193
					c-8.977,10.608-17.69,22.144-24.01,31.463c-1.045,1.504-1.983,2.95-2.862,4.308c-0.889-0.693-2.042-0.996-3.341-0.908
					c0.303-1.055,0.606-2.169,0.909-3.331c0.43-0.635,0.869-1.289,1.328-1.954c6.32-9.319,15.033-20.855,24.01-31.463
					c4.23-5.031,8.449-9.827,12.474-14.193c-2.129-2.559-4.591-4.65-7.346-6.242C371.082,123.165,374.901,125.9,378.008,129.642z"/>
			</g>
			<g id="XMLID_1349_">
				<path id="XMLID_1360_" style="fill:#27DEBF;" d="M327.125,183.425c-1.309,1.416-2.403,3.018-3.341,4.767
					c-0.889-0.332-1.827-0.694-2.823-1.026c-6.31-2.022-15.023-3.497-24.059-3.702c-4.171-0.186-8.401-0.098-12.474,0.205
					c0.303-0.713,0.615-1.426,0.928-2.13c2.52-0.088,5.06-0.078,7.58,0.029c9.026,0.215,17.749,1.69,24.059,3.712
					c0.996,0.332,1.934,0.693,2.823,1.026c0.938-1.748,2.032-3.35,3.341-4.767c-0.371-0.987-0.84-2.042-1.26-3.194
					c-2.706-7.111-5.372-17.143-7.092-27.781c-0.547-3.175-1.006-6.437-1.377-9.661c1.143-1.104,2.296-2.178,3.468-3.214
					c0.41,4.816,1.035,9.885,1.876,14.76c1.719,10.637,4.386,20.679,7.101,27.781C326.285,181.383,326.754,182.438,327.125,183.425z
					"/>
				<path id="XMLID_1343_" style="opacity:0.3;" d="M323.16,181.54c-1.309,1.416-2.403,3.018-3.341,4.767
					c-0.889-0.332-1.827-0.694-2.823-1.026c-6.31-2.022-15.033-3.497-24.059-3.712c-2.52-0.107-5.06-0.117-7.58-0.029
					c-0.313,0.703-0.625,1.416-0.928,2.13c4.073-0.303,8.303-0.391,12.474-0.205c9.035,0.205,17.749,1.68,24.059,3.702
					c0.996,0.332,1.934,0.694,2.823,1.026c0.938-1.749,2.032-3.351,3.341-4.767L323.16,181.54z"/>
				<path id="XMLID_1333_" style="opacity:0.2;" d="M323.16,181.54c-0.371-0.987-0.84-2.042-1.26-3.194
					c-2.706-7.111-5.372-17.143-7.092-27.781c-0.547-3.175-1.006-6.437-1.377-9.661c1.143-1.104,2.296-2.178,3.468-3.214
					c0.41,4.816,1.035,9.885,1.876,14.76c1.719,10.637,4.386,20.679,7.101,27.781c0.41,1.153,0.879,2.208,1.25,3.194"/>
			</g>
		</g>
	</g>
</g>
<g id="Characters">
	<g id="XMLID_9_">
		<g id="XMLID_2084_">
			<g id="XMLID_457_">
				<path id="XMLID_553_" style="fill:#FAFAFA;" d="M265.651,392.261h-8.93l1.427,8.71h0.014c0.066,0.392,0.346,0.775,0.866,1.075
					c1.192,0.688,3.125,0.688,4.318,0c0.52-0.3,0.799-0.683,0.866-1.075h0.014L265.651,392.261z"/>
				<path id="XMLID_529_" style="fill:#FAFAFA;" d="M258.016,390.197c-1.751,1.011-1.751,2.65,0,3.661
					c1.751,1.011,4.59,1.011,6.34,0c1.751-1.011,1.751-2.65,0-3.661C262.605,389.186,259.767,389.186,258.016,390.197z"/>
			</g>
			<g id="XMLID_530_">
				<path id="XMLID_555_" style="fill:#FAFAFA;" d="M220.229,365.838h-8.93l1.427,8.71h0.014c0.066,0.392,0.346,0.774,0.866,1.075
					c1.192,0.688,3.126,0.688,4.318,0c0.52-0.3,0.799-0.683,0.866-1.075h0.014L220.229,365.838z"/>
				<path id="XMLID_554_" style="fill:#FAFAFA;" d="M212.594,363.774c-1.751,1.011-1.751,2.65,0,3.661
					c1.751,1.011,4.589,1.011,6.34,0c1.751-1.011,1.751-2.65,0-3.661C217.184,362.763,214.345,362.763,212.594,363.774z"/>
			</g>
			<g id="XMLID_661_">
				<path id="XMLID_672_" style="fill:#FAFAFA;" d="M395.136,326.742h-8.93l1.427,8.71h0.014c0.066,0.392,0.346,0.775,0.866,1.075
					c1.192,0.688,3.125,0.688,4.318,0c0.52-0.3,0.799-0.683,0.866-1.075h0.014L395.136,326.742z"/>
				<path id="XMLID_668_" style="fill:#FAFAFA;" d="M387.5,324.678c-1.751,1.011-1.751,2.65,0,3.661c1.751,1.011,4.589,1.011,6.34,0
					c1.751-1.011,1.751-2.65,0-3.661C392.09,323.667,389.251,323.667,387.5,324.678z"/>
			</g>
			<g id="XMLID_559_">
				<path id="XMLID_649_" style="fill:#FAFAFA;" d="M349.714,300.319h-8.93l1.427,8.71h0.014c0.066,0.392,0.346,0.775,0.866,1.075
					c1.192,0.688,3.125,0.688,4.318,0c0.52-0.3,0.799-0.683,0.866-1.075h0.014L349.714,300.319z"/>
				<path id="XMLID_635_" style="fill:#FAFAFA;" d="M342.079,298.255c-1.751,1.011-1.751,2.65,0,3.661
					c1.751,1.011,4.59,1.011,6.34,0c1.751-1.011,1.751-2.65,0-3.661C346.668,297.244,343.83,297.244,342.079,298.255z"/>
			</g>
		</g>
		<g id="XMLID_2087_">
			<path id="XMLID_1311_" style="fill:#37474F;" d="M402.263,280.969v41.59c0,2.75-1.95,6.13-4.33,7.5l-3.53,2.04
				c-0.02,0.01-0.04,0.02-0.06,0.03c-1.39,0.78-3.621,1.148-5.411,0.93L281.531,392.58c-0.12,2.68-1.99,5.85-4.28,7.2
				c-0.01,0-0.03,0.01-0.04,0.02l-3.52,2.03c-0.11,0.07-0.22,0.13-0.33,0.17c-0.06,0.04-0.12,0.06-0.18,0.09
				c-0.02,0.01-0.04,0.01-0.05,0.02c-1.94,0.89-4.61,0.99-6.72,0.31c-0.26-0.08-0.51-0.17-0.75-0.28c-0.04-0.02-0.08-0.03-0.12-0.05
				c-0.18-0.08-0.35-0.17-0.51-0.26l-56.33-32.52c-2.39-1.38-4.33-4.75-4.33-7.5l-0.01-69.74c0-2.75,1.95-6.12,4.33-7.5
				l124.241-71.771c2.39-1.38,6.28-1.38,8.66,0l3.53,2.03c2.38,1.38,4.63,4.73,4.99,7.46l3.4,25.53l44.42,25.65
				C400.313,274.839,402.263,278.219,402.263,280.969z"/>
			<path id="XMLID_1299_" style="fill:#455A64;" d="M345.123,214.834l-3.526-2.036c-2.392-1.381-6.269-1.381-8.66,0l-124.24,71.775
				c-0.254,0.147-0.531,0.339-0.445,0.278c-1.97,1.38-3.57,4.08-3.84,6.49c0.32-2.21,2.12-3.01,4.28-1.77
				c-0.29-0.168,3.531,2.038,3.531,2.038c2.391,1.381,6.269,1.381,8.66,0l124.24-71.775
				C347.514,218.453,347.514,216.214,345.123,214.834z"/>
		</g>
		<g id="XMLID_2086_">
			<path id="XMLID_1300_" style="fill:#263238;" d="M402.263,280.969v41.59c0,2.75-1.95,6.13-4.33,7.5l-3.53,2.04
				c-0.02,0.01-0.04,0.02-0.06,0.03c-1.39,0.78-3.27,1.1-5.07,0.96c-1.29-0.09-2.54-0.43-3.53-0.99l-40.08-23.15
				c-2.38-1.37-4.33-4.75-4.33-7.5v-41.59c0-2.75,1.94-6.13,4.33-7.5l7.85-4.54l44.42,25.65
				C400.313,274.839,402.263,278.219,402.263,280.969z"/>
			<path id="XMLID_1265_" style="fill:#455A64;" d="M353.515,247.822l-7.856,4.536c-2.382,1.375-2.382,3.625,0,5l40.084,23.143
				c2.382,1.375,4.33,4.75,4.33,7.5l0,41.595c0,2.75,1.948,3.875,4.33,2.5l3.526-2.036c2.382-1.375,4.33-4.75,4.33-7.5v-41.595
				c0-2.75-1.948-6.125-4.33-7.5L353.515,247.822z"/>
			<path id="XMLID_1266_" style="fill:#37474F;" d="M390.073,288l0,41.595c0,2.75,1.948,3.875,4.33,2.5l3.526-2.036
				c2.382-1.375,4.33-4.75,4.33-7.5v-41.595c0-1.375-0.487-2.906-1.272-4.266l-12.186,7.036
				C389.586,285.094,390.073,286.625,390.073,288z"/>
		</g>
		<g id="XMLID_1282_">
			<path id="XMLID_1302_" style="fill:#263238;" d="M388.272,333.089c-0.408,0.853-0.951,1.673-1.582,2.382
				c-0.918,1.031-2.878,2.159-4.073,2.849c-15.232,8.799-80.613,46.589-95.845,55.383c-1.196,0.69-3.134,0.69-4.33-0.001
				l-14.082-8.132l-28.17-16.26c-2.39-1.38-4.33-4.6-4.33-7.19c0-2.59,1.94-5.81,4.33-7.19l15.98-9.23l12.19-7.03l67.642-39.101
				c1.2-0.69,2.76-1.03,4.33-1.03c1.57,0,3.13,0.34,4.33,1.03l40.08,23.15c2.39,1.38,4.33,4.6,4.33,7.19
				C389.072,330.919,388.772,332.029,388.272,333.089z"/>
			<path id="XMLID_1270_" style="fill:#37474F;" d="M286.775,384.324l100.131-57.861c1.196-0.69,2.165-0.131,2.165,1.25v4.381
				c0,1.381-0.969,3.06-2.165,3.75l-100.135,57.859c-1.196,0.69-2.165,0.131-2.164-1.25l0.002-4.379
				C284.61,386.694,285.58,385.015,286.775,384.324z"/>
		</g>
		<g id="XMLID_1269_">
			<path id="XMLID_1268_" style="fill:#37474F;" d="M335.998,278.12l-95.807,55.359c-2.391,1.381-4.33,4.739-4.33,7.5l0.001,8.761
				c0,2.761,1.939,6.119,4.33,7.5l40.084,23.143c2.391,1.381,6.269,1.381,8.66,0l95.806-55.358c2.391-1.381,4.33-4.739,4.33-7.5
				v-8.763c0-2.761-1.939-6.119-4.33-7.5l-40.084-23.143C342.267,276.74,338.389,276.74,335.998,278.12z"/>
			<path id="XMLID_1301_" style="fill:#263238;" d="M284.61,362.652v18.77c-1.57,0-3.14-0.35-4.33-1.04l-40.09-23.14
				c-2.39-1.38-4.33-4.74-4.33-7.5v-8.76c0-2.59,1.71-5.7,3.89-7.22c-1.94,1.39-1.79,3.43,0.44,4.72l40.09,23.14
				C281.48,362.312,283.04,362.652,284.61,362.652z"/>
			<path id="XMLID_1267_" style="fill:#455A64;" d="M288.937,361.622l95.806-55.359c2.391-1.381,2.391-3.619,0-5l-40.084-23.143
				c-2.391-1.381-6.269-1.381-8.66,0l-95.807,55.359c-2.391,1.381-2.391,3.619,0,5l40.085,23.142
				C282.668,363.002,286.545,363.002,288.937,361.622z"/>
		</g>
		<g id="Character_2_">
			<g id="XMLID_2091_">
				<g id="XMLID_2108_">
					<path id="XMLID_2111_" style="fill:#263238;" d="M325.806,278.651l-33.212,0.904l-0.377-36.091
						c-0.25-9.171,6.982-16.808,16.154-17.058l0,0c9.171-0.25,16.808,6.983,17.058,16.154L325.806,278.651z"/>
				</g>
				<path id="XMLID_1637_" style="fill:#FFA8A7;" d="M316.591,261.632c2.363-0.268,5.743-1.839,9.215,4.647
					c3.472,6.486,10.21,20.396,10.21,20.396l6.672-7.572l5.126,4.141c0,0-7.688,11.646-9.891,13.841
					c-1.75,1.745-3.837,1.967-6.107-0.915c-2.669-3.388-11.088-17.067-11.088-17.067L316.591,261.632z"/>
				<g id="XMLID_1533_">
					<path id="XMLID_1634_" style="fill:#F5F5F5;" d="M364.512,281.668c0.118-0.148,0.192-0.333,0.192-0.538
						c0-0.478-0.388-0.866-0.866-0.866c-0.245,0-0.466,0.103-0.623,0.267c0.009-0.088,0.014-0.177,0.014-0.267
						c0-1.45-1.176-2.626-2.626-2.626c-0.471,0-0.912,0.126-1.294,0.342c0.061-0.14,0.095-0.294,0.095-0.456
						c0-0.634-0.514-1.148-1.148-1.148c-0.215,0-0.416,0.06-0.588,0.163c0.018-0.133,0.031-0.268,0.031-0.406
						c0-1.642-1.331-2.973-2.973-2.973c-1.15,0-2.146,0.654-2.64,1.61c-0.158-0.372-0.527-0.633-0.957-0.633
						c-0.423,0-0.786,0.253-0.948,0.616c-0.412-0.661-1.143-1.103-1.979-1.103c-1.288,0-2.332,1.044-2.332,2.332
						c0,0.118,0.012,0.234,0.029,0.348c-0.149-0.121-0.336-0.196-0.542-0.196c-0.478,0-0.866,0.388-0.866,0.866
						c0,0.003,0.001,0.006,0.001,0.009c-0.305-0.176-0.658-0.279-1.035-0.279c-1.049,0-1.913,0.779-2.052,1.79
						c-0.142-0.054-0.295-0.084-0.456-0.084c-0.713,0-1.292,0.578-1.292,1.291c0,0.162,0.031,0.316,0.085,0.458
						c-1.116,0.445-1.905,1.533-1.905,2.807c0,1.669,1.353,3.023,3.023,3.023l10.851,7.312l11.609-7.473
						c1.251,0,2.265-1.014,2.265-2.265C365.582,282.777,365.154,282.068,364.512,281.668z M362.991,281.351
						c0.003-0.006,0.005-0.011,0.008-0.017c0.001,0.005,0.003,0.01,0.004,0.015C363,281.349,362.996,281.35,362.991,281.351z"/>
					<g id="XMLID_1628_">
						<polygon id="XMLID_1633_" style="fill:#FAFAFA;" points="354.503,290.117 354.123,312.693 356.485,311.329 357.261,288.525 
													"/>
						<polygon id="XMLID_1632_" style="fill:#27DEBF;" points="357.261,288.525 356.485,311.329 358.837,309.972 360.026,286.928 
													"/>
						<path id="XMLID_1631_" style="fill:#27DEBF;" d="M352.49,291.279c-0.204,0.118-0.47,0.176-0.737,0.176v22.357
							c0.267,0,0.534-0.059,0.737-0.176l1.633-0.943l0.38-22.576L352.49,291.279z"/>
						<path id="XMLID_1630_" style="fill:#27DEBF;" d="M361.178,308.62l1.593-0.92c0.407-0.235,0.771-0.805,0.812-1.273l2-22.707
							l-2.783,1.607L361.178,308.62z"/>
						<polygon id="XMLID_1629_" style="fill:#FAFAFA;" points="360.026,286.928 358.837,309.972 361.178,308.62 362.8,285.327 
													"/>
					</g>
					<g id="XMLID_1588_">
						<polygon id="XMLID_1627_" style="fill:#27DEBF;" points="349.003,290.117 349.383,312.693 347.021,311.329 346.245,288.525 
													"/>
						<polygon id="XMLID_1626_" style="fill:#E0E0E0;" points="346.245,288.525 347.021,311.329 344.669,309.972 343.48,286.928 
													"/>
						<path id="XMLID_1625_" style="fill:#E0E0E0;" d="M351.016,291.279c0.204,0.118,0.47,0.176,0.737,0.176v22.357
							c-0.267,0-0.534-0.059-0.737-0.176l-1.633-0.943l-0.38-22.576L351.016,291.279z"/>
						<path id="XMLID_1624_" style="fill:#E0E0E0;" d="M342.328,308.62l-1.593-0.92c-0.407-0.235-0.771-0.805-0.812-1.273l-2-22.707
							l2.783,1.607L342.328,308.62z"/>
						<polygon id="XMLID_1623_" style="fill:#27DEBF;" points="343.48,286.928 344.669,309.972 342.328,308.62 340.706,285.327 
													"/>
						<polygon id="XMLID_1603_" style="opacity:0.1;" points="349.003,290.117 349.383,312.693 347.021,311.329 346.245,288.525 
													"/>
						<polygon id="XMLID_1602_" style="opacity:0.1;" points="343.48,286.928 344.669,309.972 342.328,308.62 340.706,285.327 
													"/>
					</g>
					<g id="XMLID_1543_">
						<path id="XMLID_1545_" style="fill:#E0E0E0;" d="M351.166,286.265c-0.261,0.36-0.685,0.594-1.163,0.594
							c-0.793,0-1.436-0.643-1.436-1.436c0-0.663,0.449-1.22,1.06-1.386c-0.172,0.236-0.273,0.528-0.273,0.842
							c0,0.793,0.644,1.436,1.436,1.436C350.92,286.315,351.046,286.297,351.166,286.265z"/>
						<path id="XMLID_1544_" style="fill:#E0E0E0;" d="M352.852,286.358c0.031,0.288-0.071,0.586-0.302,0.795
							c-0.383,0.347-0.974,0.318-1.32-0.065c-0.29-0.32-0.317-0.785-0.095-1.132c0.02,0.189,0.099,0.374,0.236,0.525
							c0.347,0.383,0.938,0.411,1.321,0.065C352.755,286.489,352.808,286.426,352.852,286.358z"/>
					</g>
					<g id="XMLID_1540_">
						<path id="XMLID_1542_" style="fill:#E0E0E0;" d="M347.126,279.559c0.243,0.372,0.312,0.852,0.142,1.299
							c-0.282,0.741-1.111,1.113-1.852,0.832c-0.619-0.236-0.981-0.854-0.919-1.483c0.159,0.244,0.396,0.443,0.69,0.554
							c0.741,0.282,1.571-0.091,1.852-0.832C347.085,279.806,347.114,279.683,347.126,279.559z"/>
						<path id="XMLID_1541_" style="fill:#E0E0E0;" d="M344.902,280.922c0.134,0.257,0.148,0.572,0.01,0.85
							c-0.229,0.462-0.79,0.651-1.253,0.422c-0.387-0.192-0.582-0.615-0.502-1.019c0.088,0.169,0.229,0.312,0.412,0.403
							c0.463,0.229,1.024,0.04,1.253-0.422C344.86,281.08,344.886,281.001,344.902,280.922z"/>
					</g>
					<g id="XMLID_1536_">
						<path id="XMLID_1539_" style="fill:#E0E0E0;" d="M359.768,283.016c0.027,0.444-0.152,0.894-0.522,1.198
							c-0.612,0.503-1.517,0.415-2.021-0.198c-0.421-0.512-0.428-1.228-0.061-1.743c0.017,0.291,0.124,0.581,0.323,0.824
							c0.503,0.612,1.409,0.7,2.021,0.197C359.609,283.21,359.695,283.117,359.768,283.016z"/>
						<path id="XMLID_1538_" style="fill:#E0E0E0;" d="M361.323,282.338c0.031,0.288-0.071,0.586-0.302,0.795
							c-0.383,0.347-0.974,0.318-1.32-0.065c-0.29-0.32-0.317-0.785-0.095-1.132c0.02,0.189,0.099,0.374,0.236,0.526
							c0.347,0.383,0.938,0.411,1.321,0.065C361.227,282.47,361.28,282.406,361.323,282.338z"/>
						<path id="XMLID_1537_" style="fill:#E0E0E0;" d="M357.272,280.759c0.259,0.129,0.455,0.376,0.506,0.684
							c0.085,0.509-0.259,0.991-0.768,1.076c-0.426,0.071-0.832-0.158-1.004-0.532c0.17,0.085,0.368,0.119,0.57,0.085
							c0.509-0.085,0.853-0.567,0.768-1.076C357.331,280.912,357.306,280.833,357.272,280.759z"/>
					</g>
					<path id="XMLID_1639_" style="fill:#FFA8A7;" d="M342.328,277.069c0.001,0.706,0.929,1.689,1.475,2.235
						c0.546,0.546,2.237,1.417,2.702,2.046c0.465,0.629,1.116,0.588,1.309-0.429c0.193-1.017-1.529-2.819-1.569-3.365
						c-0.04-0.546,2.205-0.491,3.621,0.055c1.416,0.546,2.945,3.08,3.491,4.324c0.546,1.245,4.04,1.15,3.904-2.434
						c-0.136-3.583-1.883-5.291-3.849-6.212c-1.965-0.921-4.697-1.139-6.907-0.648c-2.211,0.491-4.637,2.295-5.799,5.816
						c0.296-0.047,0.519-0.01,0.697,0.061C341.503,277.917,341.791,277.422,342.328,277.069z"/>
				</g>
				<path id="XMLID_1534_" style="fill:#E0E0E0;" d="M277.175,272.118c3.068-1.119,20.076-8.406,25.831-8.302l0.626,14.159
					l-18.304,8.309L277.175,272.118z"/>
				<g id="XMLID_2114_">
					<g id="XMLID_2122_">
						<path id="XMLID_2124_" style="fill:#263238;" d="M347.883,352.838c-0.58,0.608-1.244,1.314-1.17,2.078
							c0.074,0.763,0.465,2.604,2.068,4.34c1.603,1.736,2.655,5.043,2.952,7.289c0.297,2.246,0.5,7.973,3.348,10.227
							c2.847,2.254,9.754,3.383,9.757-0.794c0.003-4.177-8.245-20.239-8.245-20.239L347.883,352.838z"/>
						<path id="XMLID_2123_" style="fill:#F28F8F;" d="M351.709,355.525c0.811,2.102,2.08,5.621,2.786,8.973
							c0.706,3.352,1.697,5.711,3.405,6.615c1.708,0.904,4.263,0.738,3.303-1.539c-0.96-2.277-4.61-13.835-4.61-13.835
							L351.709,355.525z"/>
					</g>
					<path id="XMLID_2121_" style="fill:#27DEBF;" d="M329.633,298.467c0,0,13.579,6.217,20.182,9.762
						c6.603,3.544,12.882,7.017,14.194,9.874c1.387,3.02,1.033,10.212,0.309,17.133c-0.724,6.921-2.238,19.355-2.238,19.355
						l-19.338-28.985l-19.431-12.835L329.633,298.467z"/>
					<path id="XMLID_1640_" style="opacity:0.1;" d="M354.722,328.951c-1.91-4.438-6.074-7.39-9.972-9.804
						c-3.1-1.92-10.829-6.412-13.865-8.172c0.459-1.186,1.004-2.969,1.013-4.77c0,0-0.945,2.181-2.069,4.158l0,0l-0.811,1.328
						l19.902,14.854l13.632,24.417C362.554,350.961,356.632,333.388,354.722,328.951z"/>
					<g id="XMLID_2116_">
						<path id="XMLID_2119_" style="fill:#263238;" d="M363.732,376.29c-0.559,0.37-0.483,1.755-0.428,2.765
							c0.055,1.011-0.678,2.344,0.794,3.906c1.471,1.562,3.953,1.703,5.961,3.836c2.007,2.133,5.088,6.074,10.611,6.358
							c5.522,0.284,9.31-2.127,10.055-3.876c0.745-1.749-0.389-3.113-4.116-4.522c-3.957-1.496-5.081-1.942-5.081-1.942
							L363.732,376.29z"/>
						<path id="XMLID_2118_" style="fill:#FFA8A7;" d="M367.73,364.395c0,0,3.72,6.728,5.809,9.755
							c2.088,3.028,5.06,5.738,8.27,8.196c0.699,0.535,2.235,1.481,2.805,1.913c0.508,0.384,0.687,0.913,0.218,1.594
							c-0.924,1.34-5.754,2.612-8.915,1.127c-3.161-1.485-6.656-4.833-8.629-6.146c-0.988-0.658-1.919-1.288-2.602-1.754
							c-0.656-0.447-1.03-1.201-0.986-1.994c0.013-0.225,0.024-0.488,0.033-0.795c0.049-1.655-3.372-7.698-3.372-7.698
							L367.73,364.395z"/>
						<path id="XMLID_2117_" style="fill:#27DEBF;" d="M299.584,306.135c0.055,5.523,0.33,8.602,3.226,13.64
							c2.896,5.039,9.957,8.224,18.295,11.025c6.899,2.318,17.049,5.626,19.058,6.06c2.009,0.434,2.432,1.511,2.897,5.078
							s2.865,9.061,8.254,15.447c5.692,6.745,10.947,14.836,10.947,14.836s5.629,0,7.784-3.752c0,0-15.673-36.972-18.183-41.238
							c-2.51-4.266-22.842-15.541-22.842-15.541s0.34-7.651,0.614-13.224L299.584,306.135z"/>
					</g>
				</g>
				<path id="XMLID_2113_" style="fill:#FAFAFA;" d="M303.006,263.816l-4.892,2.463c0,0,3.375,3.39,2.451,11.724
					c-0.655,5.901-1.975,6.402-4.971,8.07c3.99,9.058,4.038,22.4,4.038,22.4s7.043,3.779,19.858,0.141
					c11.258-3.196,10.143-10.146,10.143-10.146l-4.841-3.731l-1.093-8.818c0,0,3.816-3.832,2.161-10.647
					c-1.655-6.815-9.269-13.639-9.269-13.639h-2.97L303.006,263.816z"/>
				<path id="XMLID_2112_" style="fill:#F0F0F0;" d="M327.815,303.791c-5.721,2.141-14.013,1.803-17.896,0.008
					c-5.475-2.531-7.769-9.476-7.315-13.913c0.74-7.228,0.128-12.111-1.608-16.594h-0.381c0.13,1.398,0.142,2.963-0.051,4.712
					c-0.655,5.901-1.974,6.402-4.971,8.07c3.744,8.839,4.038,22.4,4.038,22.4s7.043,3.779,19.858,0.141
					C323.129,307.58,326.063,305.98,327.815,303.791L327.815,303.791z"/>
				<g id="XMLID_2092_">
					<g id="XMLID_2093_">
						<g id="XMLID_2106_">
							<path id="XMLID_2107_" style="fill:#FFA8A7;" d="M318.806,233.567c1.782,0.989,4.07,5.341,4.108,14.595
								c0.032,7.843-2.456,9.849-3.716,10.442c-1.26,0.593-3.73,0.32-6.133-0.013l0.043,3.248c0,0,4.313,4.718,4.163,6.881
								c-0.149,2.163-5.517,3.284-8.668,1.261c-3.151-2.023-5.877-6.007-5.877-6.007l-0.232-10.871c0,0-1.371,1.406-3.814-0.616
								c-2.017-1.669-2.76-4.556-1.267-6.157c1.493-1.601,4.343-1.254,5.492,0.94c0,0,3.818,0.036,8.822-2.893
								C316.73,241.447,318.551,236.615,318.806,233.567z"/>
						</g>
						<g id="XMLID_2104_">
							<path id="XMLID_2105_" style="fill:#263238;" d="M314.109,246.431c0.044,0.564-0.361,1.054-0.904,1.095
								c-0.543,0.041-1.019-0.384-1.063-0.948c-0.044-0.564,0.361-1.054,0.904-1.095
								C313.59,245.443,314.065,245.867,314.109,246.431z"/>
						</g>
						<g id="XMLID_2102_">
							<path id="XMLID_2103_" style="fill:#F28F8F;" d="M314.553,253.068l2.309,0.668c-0.172,0.66-0.829,1.046-1.466,0.862
								C314.758,254.414,314.381,253.729,314.553,253.068z"/>
						</g>
						<g id="XMLID_2100_">
							<path id="XMLID_2101_" style="fill:#263238;" d="M322.108,243.184l-2.032-1.328c0.348-0.579,1.086-0.752,1.647-0.385
								C322.284,241.838,322.457,242.605,322.108,243.184z"/>
						</g>
						<g id="XMLID_2098_">
							<path id="XMLID_2099_" style="fill:#263238;" d="M321.712,245.511c0.044,0.564-0.361,1.054-0.904,1.095
								c-0.543,0.041-1.019-0.384-1.062-0.948c-0.044-0.564,0.361-1.054,0.904-1.095
								C321.192,244.523,321.668,244.947,321.712,245.511z"/>
						</g>
						<g id="XMLID_2096_">
							<polygon id="XMLID_2097_" style="fill:#F28F8F;" points="317.249,244.578 317.365,251.003 320.461,249.95 							"/>
						</g>
						<g id="XMLID_2094_">
							<path id="XMLID_2095_" style="fill:#F28F8F;" d="M313.065,258.591c-2.53-0.262-7.756-1.611-8.62-3.639
								c0,0,0.304,1.281,1.889,2.567c1.586,1.285,6.773,2.641,6.773,2.641L313.065,258.591z"/>
						</g>
					</g>
				</g>
			</g>
			<path id="XMLID_1535_" style="fill:#B16668;" d="M313.108,261.839v-1.679c0,0,4.086-0.726,6.236,0
				c1.386,0.468,3.721,1.632,5.381,3.112c0.916,0.817,1.963,3.443,1.931,5.09c-0.044,2.281-2.233,3.068-5.185,1.222
				c-1.588-0.993-2.203-2.92-3.255-3.917C315.216,264.428,313.108,261.839,313.108,261.839z"/>
			<path id="XMLID_1532_" style="fill:#FFA8A7;" d="M298.114,266.279c-4.45,2.046-7.149,3.364-8.598,10.02s-7.286,38.35-7.286,38.35
				l6.921,2.214c0,0,5.09-15.731,6.528-21.008c1.439-5.277,4.264-13.18,4.885-17.851
				C301.171,273.447,301.685,270.096,298.114,266.279z"/>
		</g>
		<g id="XMLID_2033_">
			
				<rect id="XMLID_1826_" x="296.477" y="387.478" transform="matrix(-1 -1.224647e-16 1.224647e-16 -1 600.489 787.8553)" style="fill:#B16668;" width="7.536" height="12.9"/>
			<polygon id="XMLID_1825_" style="fill:#B16668;" points="316.808,389.82 324.339,390.079 324.716,376.427 317.185,376.168 			"/>
			<path id="XMLID_1824_" style="fill:#263238;" d="M304.012,396.993v-1.339c0.784,0.341,4.349,7.88,7.599,10.844
				c2.583,2.356,7.125,5.582,7.014,7.816c-0.142,2.883-4.255,4.161-7.803,3.329c-2.773-0.65-6.73-2.33-8.629-4.38
				c-1.854-2.002-2.518-4.744-3.509-6.086c-0.991-1.341-3.277-2.839-3.813-4.392c-0.295-0.853,0.055-2.721,0.469-4.3
				c0.38-1.448,0.791-3.04,1.285-2.905c0.001,0.176,0,0.893,0,0.893c0.595,0.659,2.24,1.313,4.095,1.384
				C301.919,397.904,304.022,397.907,304.012,396.993z"/>
			<path id="XMLID_1823_" style="fill:#263238;" d="M324.419,387.755c0.391,0.014,0.71,0.565,1.573,1.5
				c1.043,1.129,3.375,2.309,5.059,3.151c2.822,1.412,10.208,3.309,12.69,4.427c1.551,0.699,1.162,3.106-1.037,4.46
				c-1.639,1.01-6.859,1.986-11.507,0.947c-2.532-0.566-6.385-2.322-8.27-2.619c-2.065-0.326-5.863-0.722-7.403-1.784
				c-1.54-1.061-0.924-3.328-0.488-5.276c0.475-2.126,1.155-5.379,1.859-5.234l-0.023,0.669c0.906,1.372,5.518,1.932,7.508,0.922
				L324.419,387.755z"/>
			<path id="XMLID_1822_" style="fill:#27DEBF;" d="M258.49,327.555c2.058,9.482,8.475,15.041,20.073,19.627
				c9.207,3.641,17.915,6.73,17.915,6.73s-1.637,6.28-1.715,14.621c-0.069,7.345,1.331,23.632,1.331,23.632s4.999,2.103,8.432-0.08
				c0,0,1.866-12.629,3.284-21.822c2.213-14.356,3.767-21.579,3.125-24.283c-0.402-1.693-6.381-5.899-11.646-9.503l15.655,7.186
				c0,0-0.525,4.961-0.405,9.501c0.262,9.971,2.27,29.621,2.27,29.621s5.482,2.453,8.201,0.338c0,0,6.329-46.754,5.203-50.147
				c-1.32-3.977-5.611-5.525-26.684-14.501c-4.862-2.071-12.132-4.437-12.132-4.437L258.49,327.555z"/>
			<path id="XMLID_1638_" style="opacity:0.1;" d="M258.49,327.555c2.058,9.482,8.475,15.041,20.073,19.627
				c9.207,3.641,17.915,6.73,17.915,6.73s-1.637,6.28-1.715,14.621c-0.069,7.345,1.331,23.632,1.331,23.632s4.999,2.103,8.432-0.08
				c0,0,1.866-12.629,3.284-21.822c2.213-14.356,3.767-21.579,3.125-24.283c-0.402-1.693-6.381-5.899-11.646-9.503l15.655,7.186
				c0,0-0.525,4.961-0.405,9.501c0.262,9.971,2.27,29.621,2.27,29.621s5.482,2.453,8.201,0.338c0,0,6.329-46.754,5.203-50.147
				c-1.32-3.977-5.611-5.525-26.684-14.501c-4.862-2.071-12.132-4.437-12.132-4.437L258.49,327.555z"/>
			<g id="XMLID_1714_">
				<path id="XMLID_1715_" style="fill:#F5F5F5;" d="M259.156,275.495c0,0-3.521,5.216-3.521,12.142l-1.381,14.726
					c0.663,11.924,1.294,16.758,3.363,25.298c5.353,5.823,27.84-0.924,33.778-13.622c0,0-2.855-16.636-3.404-27.978
					c-0.39-8.063-3.1-13.771-10.817-13.943l-9.909,1.361L259.156,275.495z"/>
			</g>
			<g id="XMLID_1611_">
				
					<ellipse id="XMLID_1706_" transform="matrix(0.7071 -0.7071 0.7071 0.7071 -94.6605 271.5772)" style="fill:#263238;" cx="280.492" cy="250.054" rx="10.837" ry="10.837"/>
				<g id="XMLID_1622_">
					<path id="XMLID_1699_" style="fill:#263238;" d="M262.762,256.525c0,0,1.662,7.809,2.329,9.092
						c0.667,1.283,2.044,1.648,2.044,1.648l-0.116-5.493L262.762,256.525z"/>
					<path id="XMLID_1698_" style="fill:#263238;" d="M264.848,245.338c0,0-1.79-0.307-3.186,1.12
						c-1.368,1.399-0.604,5.778,1.1,10.067l3.131,0.36L264.848,245.338z"/>
					<path id="XMLID_1697_" style="fill:#B16668;" d="M266.832,256.887c-0.628,0.375-1.523-0.831-2.298-1.641
						c-0.774-0.81-3.302-1.917-4.562,0.74c-1.285,2.707,1.113,6.285,3.103,6.909c3.429,1.076,3.944-1.123,3.944-1.123l0.262,12.369
						c2.955,3.301,13.062,2.514,11.156-0.327l-0.01-3.764c0,0,3.107,0.472,4.623,0.237c2.522-0.39,4.108-2.38,4.873-5.109
						c1.229-4.384,1.695-7.924,0.653-16.547c-1.142-9.451-12.135-9.549-18.071-5.813
						C264.568,246.553,266.832,256.887,266.832,256.887z"/>
					<path id="XMLID_1696_" style="fill:#263238;" d="M266.832,257.943c-0.316,0.006-1.516-1.986-2.298-2.697
						c-1.083-0.985,0.314-9.908,0.314-9.908s-1.04-2.218,1.045-4.513c1.483-1.633,3.962-1.814,8.195-2.479
						c2.221-0.349,5.587-0.971,7.805-1.383c2.648-0.492,4.84-1.014,6.71,0.611c1.455,1.264,2.082,3.499,1.298,5.261
						c-0.184,0.413-0.45,0.786-0.752,1.123c-0.536,0.596-1.143,1.065-1.906,1.313c0,0-1.155,1.024-5.172,1.514
						s-10.273-0.094-11.129-0.211c-1.165-0.159-1.413,0.97-2.041,4.054C268.35,253.334,267.893,257.923,266.832,257.943z"/>
					<path id="XMLID_1684_" style="fill:#263238;" d="M264.854,246.032l-3.796-2.038c0.539-1.088,1.825-1.513,2.873-0.95
						C264.98,243.607,265.393,244.945,264.854,246.032z"/>
					<path id="XMLID_1682_" style="fill:#9A4A4D;" d="M278.427,270.049c0,0-5.629-1.134-7.597-2.18
						c-1.317-0.7-2.402-1.914-2.721-2.692c0,0,0.369,1.67,1.546,3.175c1.439,1.84,8.772,3.195,8.772,3.195L278.427,270.049z"/>
				</g>
				<g id="XMLID_1612_">
					<path id="XMLID_1621_" style="fill:#263238;" d="M277.074,255.48c0,0.647-0.505,1.171-1.128,1.169
						c-0.623-0.002-1.128-0.528-1.128-1.175c0-0.647,0.505-1.171,1.128-1.169C276.569,254.306,277.074,254.833,277.074,255.48z"/>
					<path id="XMLID_1620_" style="fill:#263238;" d="M275.263,250.809l-2.413,1.332c-0.356-0.693-0.104-1.554,0.562-1.921
						C274.078,249.852,274.907,250.116,275.263,250.809z"/>
					<path id="XMLID_1619_" style="fill:#9A4A4D;" d="M277.917,263.272l2.575,0.966c-0.255,0.738-1.038,1.12-1.749,0.854
						C278.032,264.825,277.662,264.01,277.917,263.272z"/>
					<path id="XMLID_1618_" style="fill:#263238;" d="M287.422,251.802l-2.201-1.695c0.449-0.63,1.305-0.761,1.913-0.293
						C287.743,250.282,287.871,251.172,287.422,251.802z"/>
					<path id="XMLID_1614_" style="fill:#263238;" d="M286.456,255.159c0,0.647-0.505,1.171-1.128,1.169
						c-0.623-0.002-1.128-0.528-1.128-1.175c0-0.647,0.505-1.171,1.128-1.169C285.951,253.985,286.456,254.511,286.456,255.159z"/>
					<polygon id="XMLID_1613_" style="fill:#9A4A4D;" points="280.881,254.253 281.012,261.094 285.056,260.203 					"/>
				</g>
			</g>
			<path id="XMLID_2019_" style="opacity:0.15;" d="M299.288,336.476l-9.047-4.851c0,0,3.691-2.66,4.177-6.117
				c0,0,0.22,4.255-1.376,6.117l19.623,10.991L299.288,336.476z"/>
		</g>
		<g id="XMLID_2085_">
			<path id="XMLID_1263_" style="fill:#263238;" d="M269.359,399.334v-41.595c0-2.75-1.949-6.125-4.33-7.5l-44.415-25.643
				l-3.402-25.532c-0.363-2.726-2.609-6.081-4.99-7.456l-3.526-2.036c-2.382-1.375-4.33-0.25-4.33,2.5l0,69.738
				c0,2.75,1.949,6.125,4.33,7.5l56.333,32.524C267.411,403.209,269.359,402.084,269.359,399.334z"/>
			<path id="XMLID_1304_" style="fill:#455A64;" d="M281.541,350.7v41.6c0,0.09,0,0.19-0.01,0.28c-0.12,2.68-1.99,5.85-4.28,7.2
				c-0.01,0-0.03,0.01-0.04,0.02l-3.52,2.03c-0.11,0.07-0.22,0.13-0.33,0.17c-0.06,0.04-0.12,0.06-0.18,0.09
				c-0.02,0.01-0.04,0.01-0.05,0.02c-0.12,0.05-0.24,0.1-0.35,0.13c-1.9,0.75-4.38,0.81-6.37,0.18c-0.26-0.08-0.51-0.17-0.75-0.28
				c2.08,0.86,3.69-0.31,3.7-2.8c0,0,0,0,0-0.01v-41.59c0-2.75-1.95-6.13-4.33-7.5l-7.86-4.54l-36.56-21.1l7.86-4.54
				c2.38-1.37,6.28-1.37,8.66,0l32.23,18.61l7.85,4.53C279.601,344.58,281.541,347.95,281.541,350.7z"/>
			<path id="XMLID_1271_" style="fill:#37474F;" d="M269.361,357.74v41.59c0,0.01,0,0.01,0,0.01c-0.01,2.49-1.62,3.66-3.7,2.8
				c0.24,0.11,0.49,0.2,0.75,0.28c1.99,0.63,4.47,0.57,6.37-0.18c0.11-0.03,0.23-0.08,0.35-0.13c0.01-0.01,0.03-0.01,0.05-0.02
				c0.06-0.03,0.12-0.05,0.18-0.09c0.11-0.04,0.22-0.1,0.33-0.17l3.52-2.03c0.01-0.01,0.03-0.02,0.04-0.02
				c2.29-1.35,4.16-4.52,4.28-7.2c0.01-0.09,0.01-0.19,0.01-0.28v-41.6c0-1.375-0.485-2.904-1.268-4.263l-12.185,7.035
				C268.874,354.833,269.361,356.365,269.361,357.74z"/>
		</g>
		<g id="XMLID_2089_">
			<path id="XMLID_2088_" style="fill:#B16668;" d="M255.895,279.103c-3.15,1.118-12.214,20.342-14.174,24.11
				c-1.959,3.768-7.144,15.372-6.134,20.043c1.01,4.672,20.926,14.559,22.901,16.538c2.367,2.371,3.02,3.526,6.546,3.897
				c2.907,0.306,3.747,2.577,6.525,3.783c2.779,1.206,7.621-0.897,5.474-4.857c-2.536-4.678-4.617-5.706-6.928-6.658
				c-3.208-1.322-5.142-1.429-7.345-2.785S247.689,319.6,247.689,319.6l6.566-12.787c0,0,4.008-9.527,4.327-16.812
				C258.902,282.717,255.895,279.103,255.895,279.103z"/>
			<path id="XMLID_1708_" style="fill:#E0E0E0;" d="M259.156,275.495c-6.017,2.186-9.099,8.201-12.497,15.004
				c-3.398,6.803-6.481,14.108-6.481,14.108s4.782,5.361,12.367,6.872l6.44-12.29C258.984,299.189,265.893,285.744,259.156,275.495z
				"/>
		</g>
	</g>
</g>
</svg>
